<svg style="display:none">
	<symbol id="ChevronLeft" xmlns="http://www.w3.org/2000/svg" fill="none" viewBox="0 0 24 24" stroke="currentColor"><path stroke-linecap="round" stroke-linejoin="round" d="M15.75 19.5L8.25 12l7.5-7.5" /></symbol>

	<symbol id="ChevronRight" xmlns="http://www.w3.org/2000/svg" viewBox="0 0 32 32" fill="currentColor"><path fill-rule="evenodd" clip-rule="evenodd" d="M11.057 7.05721C11.5777 6.53651 12.4219 6.53651 12.9426 7.05721L20.9426 15.0572C21.4633 15.5779 21.4633 16.4221 20.9426 16.9428L12.9426 24.9428C12.4219 25.4635 11.5777 25.4635 11.057 24.9428C10.5363 24.4221 10.5363 23.5779 11.057 23.0572L18.1142 16L11.057 8.94283C10.5363 8.42213 10.5363 7.57791 11.057 7.05721Z"/></symbol>

	<symbol id"Unbank" xmlns="http://www.w3.org/2000/svg" width="400" height="400"><g fill-rule="evenodd">
		<path fill="#fcfbfb" d="M161.417 8.092c-2.059.237-3.927.502-5.167.733-.458.085-1.696.311-2.75.502s-2.104.418-2.333.503-.905.244-1.5.353c-.596.109-1.159.251-1.25.316-.092.065-.655.215-1.25.334-.596.119-1.159.268-1.25.331-.092.062-.602.214-1.133.337-.531.122-1.005.285-1.052.361s-.244.138-.438.138c-.195 0-.584.075-.866.166-3.642 1.182-7.246 2.376-7.511 2.49-.184.079-.596.234-.917.344s-.733.26-.917.334c-.183.073-.783.306-1.333.517s-1.187.48-1.417.599c-.229.118-.524.215-.655.216-.132 0-.544.145-.917.321s-1.315.567-2.094.868-1.455.595-1.5.655c-.046.06-.361.199-.7.309-.339.111-1.071.421-1.627.691-.557.269-1.05.49-1.097.49-.376 0-11.96 5.633-12.049 5.859-.03.077-.18.143-.333.145s-.465.15-.694.329-.475.328-.545.33c-.159.005-5.349 2.829-7.372 4.012-.825.483-2.1 1.22-2.833 1.638s-1.433.856-1.554.974-.284.213-.363.213-.242.095-.363.21a3.2 3.2 0 0 1-.637.417c-1.215.6-8.871 5.631-8.972 5.895a.25.25 0 0 1-.209.145c-.168 0-1.697 1.043-3.652 2.491a59 59 0 0 1-1.916 1.367c-.367.243-.874.618-1.126.834s-.879.691-1.394 1.058c-.514.366-1.16.87-1.436 1.12-.275.249-.642.498-.814.552-.173.055-.314.203-.314.328s-.132.27-.292.321c-.16.052-.531.32-.824.595s-.574.5-.624.5c-.088 0-.738.526-1.187.959-.119.114-.261.208-.316.208s-.341.219-.637.487c-.295.268-.724.641-.954.828A49 49 0 0 0 67.815 54c-.548.504-1.335 1.217-1.75 1.583-1.028.908-7.565 7.335-7.565 7.438 0 .045-.487.584-1.083 1.198-.596.613-1.084 1.146-1.084 1.184s-.243.328-.541.645c-.752.8-1.862 2.137-1.939 2.335-.066.173-.307.475-1.063 1.341-.253.289-1.041 1.388-1.75 2.443-.71 1.054-1.333 1.954-1.386 2-.053.045-.211.308-.351.583a32 32 0 0 1-.951 1.632C47.447 77.851 46 80.748 46 81.091c0 .06-.104.345-.23.634-.517 1.18-.947 2.64-1.455 4.942-.581 2.631-.079 6.337 1.186 8.75.808 1.542 3.528 6.31 3.66 6.416.057.046.213.309.347.584.898 1.837 1.91 3.457 2.238 3.581.47.179 15.087 25.58 15.087 26.218 0 .352 2.587 5.122 3.499 6.451.157.229.998 1.691 1.87 3.25 1.795 3.209 2.219 3.957 2.646 4.666.433.718 1.282 2.199 1.816 3.167.253.458.969 1.696 1.592 2.75a502 502 0 0 1 3.217 5.583c1.146 2.017 2.127 3.705 2.18 3.751s.352.571.663 1.167c.311.595.892 1.625 1.291 2.288.4.663.726 1.275.726 1.361s.057.181.125.211c.124.055.5.696 1.255 2.139.215.412.754 1.37 1.197 2.128s.776 1.404.739 1.434c-.036.031-.441.269-.899.529-1.237.704-1.786 1.114-3.713 2.782-2.842 2.46-7.037 8.723-8.733 13.036a56 56 0 0 1-.545 1.341c-.119.275-.314.838-.434 1.25s-.27.825-.333.917c-.063.091-.154.354-.203.583s-.2.829-.336 1.333c-.602 2.237-.703 3.271-.703 7.167.001 3.997.09 4.854.78 7.5.385 1.474.935 3.28 1.141 3.75.081.183.24.671.354 1.083.113.413.295.9.404 1.084.109.183.25.558.313.833.109.473 2.18 4.811 2.466 5.167.074.091.706 1.066 1.404 2.166s1.412 2.188 1.586 2.417.651.867 1.059 1.417.911 1.206 1.118 1.457l.748.917c.832 1.022 1.111 1.336 2.073 2.334.552.573 1.072 1.042 1.154 1.042.083 0 .15.112.15.25 0 .137.064.25.142.25s.397.228.708.508c.312.28.679.609.817.731 1.765 1.573 7.418 4.927 8.304 4.927.073 0 .447.152.831.338.918.443 4.106 1.496 4.532 1.496.432 0 .422.064-.14.889-1.149 1.684-1.411 2.148-1.866 3.302-.266.674-.486 1.425-.489 1.67s-.077.469-.163.5c-.465.164-.492 6.858-.032 7.762.083.161.236.668.341 1.127.258 1.131 1.871 4.33 2.64 5.238 2.937 3.469 3.265 3.594 4.627 1.752 1.84-2.488 1.818-2.263.362-3.779-3.419-3.558-4.261-9.241-2.001-13.509.68-1.286 2.496-3.452 2.893-3.452.075 0 .249-.112.386-.249 1.358-1.358 5.516-.8 8.344 1.119 1.946 1.322 2.631 1.384 3.629.331 1.505-1.589 1.506-2.708.002-3.951-.222-.184-.601-.502-.843-.708-.243-.207-.507-.375-.589-.375-.081-.001-.495-.214-.918-.475-.424-.26-1.07-.57-1.435-.688-.366-.118-.74-.272-.832-.343s-1.02-.267-2.062-.437l-1.896-.308.108-2c.06-1.1.18-2.337.267-2.75s.279-1.65.427-2.75.337-2.225.421-2.5.381-1.437.662-2.583c.468-1.912 1.907-6.371 2.293-7.107.09-.17.403-.872.697-1.56.509-1.193 1.365-2.946 2.317-4.75.402-.761.665-1.198 1.755-2.916.593-.936 1.756-2.674 1.932-2.887.089-.108.591-.759 1.115-1.447.525-.687 1.05-1.349 1.167-1.47.118-.121.214-.278.214-.35 0-.271 6.819-7.18 7.086-7.18.036 0 .243-.168.461-.375.632-.599 1.502-1.315 1.953-1.606.229-.148.604-.431.833-.63.483-.419 2.777-2.071 3.75-2.7.995-.645 1.156-.744 1.762-1.085.305-.173.658-.416.783-.542.126-.126.331-.228.455-.228s.331-.105.459-.233c.129-.129 1.198-.738 2.377-1.355l2.144-1.122 2.76.354c1.518.195 3.21.426 3.76.513s1.675.234 2.5.327c.825.092 2.391.285 3.481.429 2.429.322 2.261.408 4.056-2.076 1.645-2.279 1.645-2.42-.01-2.577-.656-.062-1.456-.179-1.777-.259s-1.821-.265-3.333-.41-3.013-.332-3.334-.417-1.558-.277-2.75-.427-2.729-.345-3.416-.434c-2.655-.343-4.252-.485-9.084-.808-2.75-.184-6.05-.418-7.333-.519-6.651-.523-17.19.008-22.917 1.156-2.853.572-4.239.885-4.496 1.016-.14.07-.5.175-.801.232-.525.099-1.537.467-3.869 1.407-1.174.473-4.203 2.011-5.205 2.644-.342.215-.66.392-.705.392-.289 0-3.74 2.424-3.974 2.791-.073.115-.214.209-.313.209-.413 0-3.837 3.473-5.645 5.727-.82 1.021-1.552 1.933-1.629 2.027-.076.093-.412.581-.746 1.083a81 81 0 0 1-.904 1.33c-.278.392-.626 1.037-1.845 3.416q-.828 1.618-1.707 4c-.203.55-.426 1.15-.495 1.334-.095.253-.153.132-.242-.5a13 13 0 0 0-.257-1.334c-.644-2.311-.145-8.02.995-11.388.875-2.585 1.012-2.92 1.992-4.862 1.177-2.333 2.984-5.277 3.751-6.11.098-.107.366-.443.595-.747 1.56-2.071 6.342-5.809 7.431-5.809.072 0 .997-.402 2.319-1.005.367-.168 1.529-.58 2.584-.916 1.054-.335 2.066-.674 2.25-.753.364-.155 2.161-.55 4.5-.989.825-.155 1.612-.326 1.75-.38s.737-.138 1.333-.187a143 143 0 0 0 2.75-.268c6.316-.675 10.12-.847 18.667-.842 8.469.005 12.553.169 21.166.851 1.284.101 3.159.22 4.167.263s1.946.125 2.083.183 1.713.238 3.5.401c2.945.269 6.895.697 10.393 1.125 1.736.212 1.886.127 3.348-1.904 2.075-2.881 2.138-2.767-1.657-3.014-.734-.048-1.484-.151-1.667-.23s-.971-.195-1.75-.259a105 105 0 0 1-2.667-.259c-3.529-.403-10.413-1.046-17.583-1.642-1.008-.084-4.196-.235-7.083-.336s-6.188-.263-7.334-.36c-3.531-.297-22.413.34-23.666.798-.138.051-1.375.231-2.75.402-2.595.321-5.544.829-5.834 1.005-.091.056-.748.202-1.458.325s-1.292.284-1.292.357-.168.135-.375.136c-.206.002-1.35.342-2.541.756-1.192.414-2.266.769-2.387.789s-.479-.452-.794-1.047c-.315-.596-.649-1.196-.742-1.334-.093-.137-.813-1.375-1.601-2.75a518 518 0 0 0-1.727-3 609 609 0 0 1-3.294-5.75c-.229-.412-.679-1.2-1-1.75a88 88 0 0 1-1.167-2.083 33 33 0 0 0-1.125-1.917 51 51 0 0 1-1.252-2.083l-1.664-2.917c-3.783-6.621-4.831-8.47-4.831-8.526 0-.035-.178-.344-.396-.686-.593-.931-2.664-4.482-3.278-5.621-.296-.55-.641-1.118-.766-1.263-.124-.145-.226-.346-.226-.447 0-.1-.094-.282-.209-.403s-.358-.514-.541-.873c-.758-1.483-.954-1.825-1.18-2.051-.13-.13-.282-.419-.338-.641s-.169-.405-.25-.405a.15.15 0 0 1-.149-.15c0-.082-.31-.661-.69-1.285-.379-.625-.793-1.364-.919-1.642-.126-.279-.529-.984-.896-1.569-.366-.584-1.69-2.871-2.942-5.083s-2.32-4.059-2.373-4.105-.229-.346-.391-.666a28 28 0 0 0-.681-1.25 89 89 0 0 1-.8-1.417c-.599-1.091-.88-1.572-.975-1.667-.081-.081-.159-.214-.868-1.481a15 15 0 0 0-.651-1.044c-.434-.612-.454-.604.894-.363 2.4.427 3.418.538 5.959.646 2.597.111 7.685-.119 9.25-.417a46 46 0 0 1 2.327-.345c1.61-.199 5.464-.946 7.756-1.503 4.647-1.128 6.515-1.625 6.873-1.828.159-.091.387-.165.506-.165.221 0 3.092-.889 3.704-1.146.614-.259 1.521-.52 1.804-.52.154 0 .28-.075.28-.167s.143-.167.319-.167c.175 0 .907-.219 1.625-.488l2.972-1.107c3.207-1.192 4.916-1.887 5.159-2.099a.73.73 0 0 1 .416-.141c.142 0 .634-.186 1.092-.411s.902-.412.987-.415.609-.22 1.166-.483a84 84 0 0 1 1.597-.732c.321-.14 1.017-.45 1.547-.689.529-.239 1.036-.435 1.125-.435s.161-.063.161-.14.282-.225.625-.329c.864-.26 11.852-5.797 12.625-6.361.154-.112.779-.46 3-1.667.846-.459 1.794-.985 3-1.663.367-.207.742-.434.834-.506s.429-.281.75-.463a120 120 0 0 0 4.333-2.616c1.996-1.283 2.492-1.588 2.587-1.588.051 0 .259-.156.462-.347.202-.192.593-.465.868-.609s1.389-.869 2.476-1.611 2.218-1.5 2.512-1.683.841-.577 1.214-.875c.374-.298.758-.542.854-.542s.273-.131.393-.291c.119-.161.405-.389.634-.508s.706-.475 1.06-.792c.354-.316.744-.575.867-.575a.48.48 0 0 0 .356-.215c.074-.117.634-.567 1.247-.999.612-.432 1.212-.88 1.333-.994.121-.115.52-.432.887-.704.757-.562.898-.676 1.556-1.255.26-.229.688-.567.951-.75.552-.386 1.41-1.102 2.243-1.874.321-.297.628-.54.684-.541.055-.001.32-.208.589-.46.27-.252.758-.683 1.085-.958a90 90 0 0 0 3.875-3.459c.548-.527 1.023-.958 1.056-.958.096 0 5.544-5.442 5.544-5.538 0-.048.319-.423.709-.834 2.813-2.966 7.104-8.384 7.963-10.054.205-.399.494-.86.642-1.025.566-.628 3.52-6.431 3.52-6.914 0-.138.122-.496.272-.797l.273-.546.472.979c.449.93 1.246 2.65 2.212 4.776.24.529.437 1.036.437 1.125s.06.161.134.161c.073 0 .232.282.352.625.121.344.624 1.465 1.117 2.492.494 1.026.897 1.915.897 1.974 0 .06.307.757.682 1.551 1.984 4.193 3.27 6.942 3.6 7.692.142.32.538 1.183.881 1.916.342.734.721 1.596.841 1.917.121.321.274.658.341.75s.46.917.873 1.833a368 368 0 0 0 2.608 5.667c1.298 2.736 2.648 5.645 3.134 6.75.141.321.62 1.357 1.065 2.303s.809 1.746.809 1.778.4.909.889 1.947a232 232 0 0 1 1.188 2.555 197 197 0 0 0 1.838 4c1.325 2.782 2.085 4.417 2.085 4.485 0 .039.412.943.916 2.008.505 1.065.917 1.968.917 2.007s.329.768.73 1.619c1.694 3.591 2.103 4.475 2.103 4.545 0 .041.404.921.898 1.955 1.531 3.209 2.436 5.161 2.436 5.255 0 .297.763 1.543.945 1.543.12 0 .617-.544 1.104-1.208 2.347-3.202 2.338-3.174 1.527-4.791a65 65 0 0 1-.993-2.084 300 300 0 0 0-2.213-4.834 479 479 0 0 1-1.541-3.333c-.292-.642-.823-1.793-1.18-2.558s-.649-1.426-.649-1.468-.294-.691-.652-1.442c-1.237-2.59-2.218-4.702-2.763-5.949a50 50 0 0 0-.983-2.107c-.24-.472-.436-.9-.436-.952 0-.053-.412-.953-.916-2.002-.505-1.049-.917-1.944-.917-1.99 0-.075-.764-1.727-2.174-4.699-1.011-2.13-2.159-4.626-2.159-4.691 0-.038-.413-.93-.917-1.983s-.917-1.982-.917-2.066-.227-.33-.504-.547c-.394-.308-1.145-1.782-3.423-6.72a2454 2454 0 0 0-3.348-7.243c-.237-.504-.713-1.554-1.058-2.333s-1.503-3.32-2.573-5.647-1.927-4.389-1.905-4.584c.062-.548-.04-.801-2.037-5.05-.267-.567-.485-1.111-.485-1.208 0-.098-.06-.178-.133-.178s-.233-.281-.355-.625-.594-1.412-1.05-2.375c-.456-.962-.947-2.05-1.092-2.416-.641-1.624-2.626-4.151-4.445-5.66-3.87-3.211-12.896-4.714-22.008-3.665m9.968 4.918c5.513.81 7.549 1.518 9.443 3.283.221.205.462.374.537.374.074 0 .135.108.135.241a.5.5 0 0 0 .208.375c.207.133.475.549.918 1.425.127.252.274.873.326 1.38.053.507.16.962.238 1.01.2.123.18 1.526-.023 1.652-.092.057-.167.349-.167.649 0 .772-.326 2.422-.601 3.043-.128.289-.232.618-.232.732s-.145.514-.322.891a236 236 0 0 0-.839 1.822 25 25 0 0 1-1.178 2.225c-.364.599-.661 1.118-.661 1.155 0 .055-2.003 3.148-2.364 3.65-.244.339-4.367 5.503-4.458 5.584-.052.046-.577.608-1.166 1.25-2.505 2.727-5.143 5.339-9.676 9.582-.146.138-.601.523-1.01.857s-.901.746-1.095.916c-1.754 1.547-4.006 3.394-4.137 3.394-.042 0-.287.196-.544.436-.552.516-3.752 2.963-4.985 3.812a10 10 0 0 0-.899.72 5 5 0 0 1-.916.649c-.275.145-.538.318-.584.384q-.15.22-3 2.119c-.779.519-1.454.991-1.5 1.049-.223.284-5.772 3.834-9.333 5.972-1.146.688-2.121 1.294-2.167 1.347s-.308.208-.583.345c-.275.138-.538.291-.583.342-.046.051-.346.221-.667.377a19 19 0 0 0-1.25.691c-.787.48-1.072.639-2.833 1.582-.734.393-1.359.78-1.389.861s-.16.147-.287.147-.514.16-.861.356a74 74 0 0 1-4.297 2.256c-1.008.495-1.945.959-2.083 1.031l-.917.481c-2.075 1.089-8.768 4.105-11.923 5.373a95 95 0 0 0-2.45 1.019c-.388.175-.815.318-.948.318s-.284.066-.334.148-.298.2-.551.263a8 8 0 0 0-.96.33c-1.05.454-5.847 2.096-6.115 2.094-.156-.001-.325.067-.377.152-.053.084-.338.205-.635.267a7 7 0 0 0-1.04.328c-.275.118-.875.306-1.333.419-.459.112-1.246.334-1.75.494-4.205 1.332-11.068 2.795-15.334 3.269-1.237.137-2.569.321-2.96.409-.908.204-7.39.209-8.187.007-.331-.084-1.275-.239-2.098-.343-.822-.105-1.572-.247-1.666-.316-.095-.069-.582-.226-1.084-.348-2.502-.612-4.825-2.376-5.853-4.446l-.568-1.144.005-2.417c.007-2.516.154-3.293 1.106-5.833.343-.915 2.106-4.601 2.352-4.917.071-.091.48-.729.909-1.416.429-.688.826-1.288.882-1.334.055-.046.394-.528.752-1.073s.822-1.174 1.031-1.399.379-.503.379-.618.097-.244.215-.29.436-.402.707-.793.685-.917.92-1.169.611-.696.835-.988.688-.812 1.032-1.157c.343-.345.625-.714.625-.82s.072-.193.16-.193c.228 0 1.497-1.373 1.502-1.625.002-.114.072-.208.154-.208.195 0 2.517-2.322 2.517-2.517 0-.082.057-.15.127-.15s.819-.656 1.665-1.458 1.924-1.796 2.394-2.208a152 152 0 0 0 2.627-2.334c.248-.229.775-.679 1.172-1a118 118 0 0 0 2.79-2.319c.655-.558 1.267-1.014 1.361-1.014.093 0 .195-.056.225-.125.064-.145 1.284-1.135 2.722-2.211.55-.411 1.186-.916 1.415-1.122.228-.207.461-.375.516-.375.056 0 .258-.132.448-.292.191-.16 1-.742 1.799-1.292s1.625-1.168 1.838-1.375c.212-.206.431-.375.486-.375.1 0 2.014-1.269 2.332-1.545.244-.213 5.186-3.439 6.313-4.121.53-.321 1.064-.677 1.188-.791.123-.115.398-.283.611-.374s1.433-.804 2.711-1.584 2.353-1.418 2.391-1.418.267-.138.51-.307 1.005-.607 1.692-.974a164 164 0 0 0 4.353-2.406c.79-.447 1.515-.813 1.612-.813.096 0 .199-.056.23-.125.092-.207 12.749-6.375 13.081-6.375.072 0 .45-.165 2.521-1.102.484-.219.975-.398 1.092-.398a.65.65 0 0 0 .37-.142c.087-.077.495-.27.908-.428.412-.157 1.35-.534 2.083-.836a91 91 0 0 1 2.834-1.099c.825-.301 1.725-.636 2-.744 1.286-.505 7.405-2.519 8.108-2.67.307-.066.633-.176.725-.245s.467-.179.833-.245a6.4 6.4 0 0 0 1.167-.335c.275-.119.95-.305 1.5-.412.55-.108 1.15-.259 1.333-.336.439-.185 4.227-1.01 5.5-1.198.55-.081 1.413-.252 1.917-.379s2.079-.357 3.5-.512c1.421-.154 2.996-.34 3.5-.413 1.378-.199 6.022-.197 7.385.004M55.273 102.783c-.069.068-.194.014-.28-.121-.256-.406-.179-.586.122-.285.155.155.226.338.158.406m201.158 18.259c-.504.449-3.09 4.126-3.095 4.4-.002.131.694.217 2.206.272 2.045.074 5.98.562 7.541.936.367.088 1.23.28 1.917.428s1.4.333 1.583.413 1.121.384 2.084.676c.962.292 2.055.674 2.427.849.373.174.752.317.843.317.263 0 4.374 2.142 5.394 2.81.51.334 1.047.682 1.193.774 1.233.772 5.309 4.496 5.309 4.85 0 .045.383.648.851 1.341s1.032 1.684 1.255 2.201.477 1.091.565 1.274c.825 1.725 1.319 8.5.68 9.324-.075.097-.229.664-.342 1.26-.114.595-.265 1.158-.336 1.25-.071.091-.219.466-.33.833-.212.706-1.669 3.775-1.858 3.917-.062.045-.29.394-.507.775-.42.736-1.37 1.955-1.853 2.377-.16.14-.291.346-.291.457s-.15.249-.334.307c-.183.059-.333.177-.333.263s-.225.392-.5.68-.5.587-.5.665-.107.142-.239.142c-.131 0-.286.15-.344.334-.059.183-.179.333-.267.333s-.424.262-.744.583c-.321.321-.622.584-.669.584s-.273.187-.502.416c-.229.23-.47.418-.534.418-.065.001-.38.248-.701.549-.321.3-.819.693-1.108.873-.288.18-1.283.833-2.21 1.452-.928.619-1.719 1.125-1.759 1.125s-.401.221-.801.491c-1.04.702-5.714 3.009-6.096 3.009-.106 0-.193.075-.193.167 0 .091-.11.166-.245.166s-.641.176-1.125.39-1.555.634-2.38.934c-.825.299-1.762.646-2.083.77-.321.125-1.483.493-2.583.819s-2.225.663-2.5.75c-.57.18-2.09.565-3.917.991-.687.16-1.363.332-1.5.383-.355.131-3.942.781-5.917 1.073-.916.136-1.929.318-2.25.405-.66.179-4.503.613-7.25.82-3.949.296-10.133.162-16.055-.35-1.547-.134-2.338-.139-2.602-.019-.626.285-3.184 4.019-2.978 4.346.183.289 2.89.651 5.06.676.601.007 1.179.1 1.286.206.435.435 16.43.358 19.123-.091.275-.046 1.4-.174 2.5-.284s2.071-.264 2.158-.343c.087-.078.458-.142.823-.142.366 0 1.12-.084 1.675-.186 3.58-.658 9.917-2.068 11.094-2.467.229-.078.716-.225 1.083-.327 1.127-.313 4.104-1.299 5.333-1.766.642-.244 1.52-.553 1.952-.686.431-.134.829-.317.884-.406s.21-.162.343-.162.597-.16 1.031-.355c.435-.196 1.128-.504 1.54-.686 2.882-1.268 6.54-3.209 8.417-4.466.367-.246 1.117-.735 1.667-1.088 1.121-.719 1.049-.667 2.107-1.527.426-.345 1.364-1.096 2.084-1.668 1.292-1.026 3.901-3.613 5.427-5.383.774-.899.914-.822.465.256-.076.183-.227.821-.335 1.417-.108.595-.254 1.158-.324 1.25-.071.091-.181.391-.244.666-.159.684-1.791 4.084-1.96 4.084-.076 0-.137.074-.137.165 0 .18-.859 1.377-1.712 2.387-.295.349-.602.753-.683.897-.468.837-6.054 6.447-7.355 7.388-.55.397-1.038.768-1.083.823-.046.055-.484.354-.974.664s-.98.645-1.09.745c-.228.207-.732.506-1.686 1.001-.367.191-.705.388-.75.439s-.346.195-.667.32-1.201.514-1.955.865c-.754.352-1.415.639-1.469.639-.053 0-.523.195-1.045.433-1.462.668-1.913.854-2.364.976a6 6 0 0 0-.75.257c-1.377.598-8.602 2.409-11.334 2.84-.641.102-1.429.25-1.75.329s-1.37.227-2.333.329c-.963.101-2.125.255-2.583.342-.809.153-2.995.298-10.063.67-5.2.273-23.845-.234-25.254-.687-.731-.235-1.815-.187-2.224.1-.488.342-3.043 3.915-3.043 4.255 0 .316 1.495.532 5.667.821 1.421.098 3.146.251 3.833.339 4.112.529 23.042.525 26.917-.006.642-.088 2.306-.235 3.699-.328 1.392-.092 3.042-.247 3.666-.344 1.222-.189 4.445-.744 5.802-.998.979-.183.972-.182 6-1.406.641-.156 1.316-.345 1.5-.421.183-.075.708-.232 1.166-.348.964-.244 3.784-1.267 5-1.814a72 72 0 0 1 1.334-.583c3.021-1.264 5.994-2.743 7.35-3.657 1.759-1.187 2.4-1.662 2.4-1.778 0-.073.149-.179.332-.237s.427-.195.542-.303c.115-.109.621-.506 1.126-.883s1.124-.895 1.377-1.15l.461-.465.664.733c.841.93 2.471 3.289 3.485 5.045.764 1.323 1.178 2.149 2.1 4.189 1.716 3.798 1.746 3.867 1.746 4 0 .064.106.353.235.641.279.621.84 2.158 1.257 3.442.163.505.376 1.105.472 1.334.097.229.379 1.091.627 1.916s.583 1.913.745 2.417c.161.504.383 1.292.494 1.75s.264.983.34 1.167c.077.183.225.745.33 1.25.105.504.257 1.066.338 1.25.141.32.547 2.178 1.093 5 .142.733.324 1.483.404 1.666.08.184.26 1.084.399 2 .139.917.365 2.342.503 3.167s.254 1.744.257 2.042.073.541.156.541c.082 0 .187.619.232 1.375.046.757.202 2.725.347 4.375.231 2.626.389 11.25.206 11.25-.035 0-.692-.178-1.458-.397-1.667-.475-2.498-.671-4.81-1.132-3.171-.633-13.273-.611-17.25.037-3.003.49-4.023.719-5.917 1.329-1.146.369-2.233.739-2.417.822s-.614.237-.958.343c-.344.105-.625.254-.625.331s-.221.189-.492.249a2.7 2.7 0 0 0-.875.399c-.211.161-.627.39-.925.509-.298.12-.541.283-.541.364 0 .08-.104.146-.23.146-.127 0-.663.336-1.192.747l-.961.746-.733-1.116c-.403-.614-.796-1.156-.872-1.205-.077-.049-.401-.402-.72-.785-1.708-2.052-5.146-4.307-7.459-4.894-.412-.105-.885-.262-1.051-.349-.585-.307-2.48-.388-2.682-.114-.101.136-.39.3-.642.363-.252.062-.458.225-.458.361s-.057.247-.125.248c-.212.002-.542.869-.542 1.423 0 1.381 1.321 2.575 2.848 2.575.256 0 .506.066.555.145.05.08.334.194.633.254s.993.343 1.543.629c6.79 3.534 8.697 12.059 3.313 14.809-1.657.846-7.228.272-8.059-.831-.046-.061-.428-.346-.851-.633-1.164-.792-2.461-2.124-3.367-3.457-.675-.994-1.56-1.348-3.721-1.488-1.781-.115-5.098.125-5.477.397-.092.066-.617.22-1.167.342s-1.075.272-1.167.333c-.091.061-.654.282-1.25.491-2.375.835-7.611 3.734-8.696 4.814-.153.153-.557.466-.896.695a8 8 0 0 0-.989.792c-.206.206-.427.375-.492.375-.127 0-3.407 3.279-4.092 4.091-.504.598-2.666 3.513-3.585 4.834-.366.527-.91 1.285-1.208 1.685-.298.399-.542.764-.542.809s-.403.669-.897 1.386c-.493.716-1.021 1.522-1.173 1.79-.152.269-.457.788-.678 1.155s-.498.854-.615 1.083c-.117.23-.258.454-.312.5s-.15.196-.213.334c-.063.137-.414.7-.78 1.25s-.76 1.187-.875 1.416c-.352.705-1.63 2.858-2.396 4.037-.4.615-.727 1.166-.727 1.224 0 .057-.14.304-.31.547s-.497.78-.726 1.192c-2.404 4.324-5.511 8.775-7.388 10.584-1.925 1.854-3.65 2.726-6.743 3.409-1.17.259-1.85.565-2.259 1.019l-.324.36-.193-1.644c-.286-2.449-.543-4.046-.8-4.978-.126-.458-.432-1.696-.68-2.75a94 94 0 0 0-1.031-3.916c-.91-3.13-1.185-4.144-1.898-7-.366-1.467-.731-2.788-.811-2.936s-.238-.748-.351-1.333c-.114-.586-.255-1.102-.315-1.148s-.206-.53-.326-1.075-.277-1.108-.35-1.25-.222-.708-.331-1.258-.261-1.15-.337-1.334c-.596-1.446-2.548-14.17-2.292-14.939.031-.094.355.265.719.799 1.292 1.894 3.13 3.929 4.643 5.14.343.275.713.578.821.673.109.095.573.432 1.032.75.458.317.858.634.889.702.03.069.147.125.259.125s.44.175.729.388a5 5 0 0 0 1.199.61c.371.122.674.285.674.362s.105.14.234.14.523.141.875.312.941.401 1.307.511c.367.11.817.265 1 .345 4.065 1.779 12.975 1.355 18.04-.859.389-.17.773-.309.853-.309.295 0 5.338-2.753 5.524-3.015.046-.065.547-.459 1.114-.876 2.204-1.621 4.782-4.203 6.386-6.395.321-.438.672-.891.781-1.006s.245-.359.303-.542.161-.332.229-.332c.069 0 .228-.263.354-.584s.276-.583.333-.583c.109 0 1.574-2.862 2.133-4.167.595-1.39 1.399-3.921 1.694-5.333.106-.504.262-1.235.348-1.623.194-.877.348-2.939.382-5.119l.026-1.659 1.084-.883c3.449-2.812 8.279-4.542 13.25-4.747 3.718-.153 9.416 2.481 9.416 4.353 0 1.144 2.105 2.177 3.419 1.677 1.187-.451 1.969-2.248 1.433-3.293a55 55 0 0 1-.524-1.077c-.207-.433-.515-.914-.685-1.068-.17-.153-.309-.345-.309-.425 0-.165-1.559-1.803-1.715-1.803-.056 0-.304-.187-.551-.416s-.545-.417-.661-.417c-.117 0-.237-.063-.268-.14-.074-.187-1.646-.973-2.889-1.443-3.342-1.265-9.31-1.364-13.083-.217-1.347.409-2.628.858-3.29 1.152-.388.173-.766.315-.838.315-.24 0-2.305 1.106-3.65 1.956-1.048.661-1.187.671-1.319.085-.663-2.95-2.902-7.188-5.242-9.922-.99-1.156-3.33-3.453-3.519-3.453-.067 0-.468-.3-.892-.666s-.849-.667-.944-.667c-.096 0-.41-.2-.699-.443-.441-.374-1.249-.788-4.024-2.062-4.116-1.889-13.254-2.502-15.753-1.057-.904.523-5.323 6.895-4.782 6.895.026 0 .683-.269 1.458-.598.776-.33 1.636-.661 1.911-.736l1.833-.498c4.384-1.193 12.136-.625 13.992 1.025a.7.7 0 0 0 .395.141c.295 0 3.272 1.762 3.937 2.33 1.075.918 2.01 1.774 2.372 2.17 1.312 1.436 1.615 1.813 1.899 2.363.174.338.389.658.476.713.61.376 2.367 4.5 2.916 6.84.151.642.346 1.438.435 1.77.089.331.161.833.161 1.115s.075.559.167.615c.092.057.167.432.167.834s-.075.776-.167.833-.168.792-.17 1.635c-.005 2.233-.482 4.781-1.419 7.586-.593 1.772-2.476 5.617-3.015 6.156-.156.156-.526.66-.823 1.12a13 13 0 0 1-1.06 1.412c-1.146 1.268-2.554 2.674-3.288 3.282-.426.353-.87.736-.988.851s-.284.208-.371.208-.26.123-.385.273c-.743.895-5.155 3.078-7.564 3.742-3.673 1.013-8.232 1.183-11.334.423-2.67-.654-2.902-.724-3.331-1.005-.224-.146-.504-.266-.624-.266-.516 0-3.894-2.118-4.845-3.039-.31-.3-.856-.813-1.215-1.14-.825-.754-2.068-2.242-2.068-2.476 0-.098-.07-.179-.155-.179-.086 0-.198-.131-.249-.291-.052-.161-.284-.512-.516-.782-.233-.269-.466-.663-.519-.875-.054-.212-.164-.385-.246-.385s-.148-.073-.148-.162-.229-.663-.509-1.274-.686-1.757-.902-2.546c-.945-3.449-.993-3.79-1-7.143-.004-2.06-.066-3.189-.173-3.155-.432.137-5.649 7.723-5.973 8.685-.458 1.358-.304 11.057.217 13.678.091.459.277 1.696.414 2.75.272 2.101.809 5.272.959 5.667.052.137.225 1 .385 1.917.16.916.346 1.741.414 1.833.069.092.222.692.342 1.333.12.642.271 1.242.337 1.334.065.091.214.616.331 1.166s.266 1.075.33 1.167c.065.092.208.579.318 1.083s.262 1.067.338 1.25c.075.184.23.784.344 1.334s.466 1.9.783 3 .675 2.412.795 2.916c.121.504.306 1.179.411 1.5.348 1.061.835 2.885 1.423 5.334.32 1.329.653 2.679.742 3 .787 2.853.831 8.592.089 11.75-.13.55-.323 1.468-.43 2.041-.108.573-.282 1.042-.389 1.042-.333 0-7.471-3.654-7.569-3.875a.23.23 0 0 0-.193-.125c-.267 0-4.197-2.372-4.928-2.976a4.4 4.4 0 0 0-.583-.356c-.224-.115-.789-.5-1.255-.856-.467-.355-.901-.645-.965-.645-.138 0-1.11-.671-1.351-.933-.093-.101-.544-.439-1.002-.75-.459-.312-.871-.609-.917-.659a11 11 0 0 0-.741-.584c-.361-.27-.884-.697-1.162-.949s-.556-.459-.62-.459-.373-.243-.688-.541-1-.917-1.522-1.375a153 153 0 0 1-1.9-1.705c-.523-.479-1.044-.873-1.159-.875s-.208-.083-.208-.18-.694-.875-1.542-1.729a84 84 0 0 1-2.541-2.678c-.55-.619-1.188-1.329-1.417-1.578s-.567-.634-.75-.854c-.64-.769-1.829-2.235-1.849-2.28-.165-.374-3.068 3.368-3.068 3.955 0 .251.356.862.744 1.276.095.102.435.507.756.9 1.88 2.301 6.916 7.346 9.815 9.831 1.856 1.591 2.022 1.728 2.925 2.417.386.295.846.654 1.023.799 1.475 1.21 2.239 1.784 2.372 1.784.087 0 .261.124.387.277.221.267 7.354 5.056 7.531 5.056.048 0 .75.385 1.559.854 2.567 1.49 4.569 2.535 8.097 4.225.71.341 1.291.648 1.291.683 0 .383-1.348 2.224-2.233 3.049l-1.049.981c-.22.206-.435.375-.479.375s-.358.173-.7.385a8 8 0 0 1-1.205.6 30 30 0 0 0-.917.355c-1.524.64-3.746.631-5.167-.02-1.466-.672-3.121-.997-3.333-.653-.057.091-.211.166-.342.166-.409 0-1.018.657-1.245 1.343-.624 1.892 1.514 3.735 5.381 4.638 1.76.412 4.847.047 6.873-.812 1.667-.706 2.75-1.242 2.75-1.36 0-.078.096-.142.214-.142.21 0 .839-.472 1.831-1.375.277-.252.568-.458.646-.458s.142-.108.142-.239.15-.286.333-.345.334-.157.334-.219c.001-.063.243-.372.538-.687.748-.798 1.189-1.433 1.801-2.594.29-.55.546-1.019.568-1.043.045-.048 1.681.572 2.132.808.159.084.436.152.615.152s.366.065.415.144.447.24.885.357c.437.117 1.133.343 1.546.501.412.158 1.462.494 2.333.746s1.756.524 1.966.605c.211.081.552.147.759.147s.446.064.533.143.646.24 1.242.358c.596.119 1.158.26 1.25.315.198.118 2.343.58 4.667 1.005.916.168 1.779.349 1.916.404.256.101 2.58.436 6 .866 6.557.825 15.466.853 23.318.073.971-.096 1.991-.24 2.266-.319s1.287-.236 2.25-.348c.962-.112 1.825-.258 1.916-.322.092-.065.804-.216 1.584-.335.779-.12 1.491-.269 1.583-.332.092-.064.692-.214 1.333-.334.642-.119 1.242-.273 1.334-.341.091-.067.464-.177.828-.242.364-.066.964-.214 1.333-.329 3.359-1.048 4.406-1.39 5.942-1.943.973-.35 2.023-.746 2.333-.881.31-.134.864-.371 1.23-.527 1.411-.6 1.912-.832 4.417-2.043 1.421-.687 2.608-1.314 2.639-1.392.03-.079.143-.143.25-.143s.808-.365 1.557-.811a58 58 0 0 1 1.583-.919c.122-.06.558-.332.971-.606s.964-.629 1.226-.789c1.413-.865 4.455-3.146 6.917-5.186 1.734-1.436 6.357-5.875 6.357-6.103 0-.053.225-.317.5-.586s.5-.522.5-.563.25-.332.555-.646.773-.864 1.04-1.222c.268-.359.534-.69.592-.735 1.488-1.173 8.646-13.425 8.646-14.799 0-.215.277-.315 1.271-.459.447-.065.888-.171.979-.236.092-.065.617-.209 1.167-.321s1.15-.266 1.333-.342.671-.23 1.084-.341c.412-.112.949-.308 1.192-.436s.546-.233.673-.233.525-.15.885-.333c.359-.184.726-.334.816-.334.173 0 .757-.261 3.267-1.458 1.396-.666 2.086-1.037 4.481-2.406.743-.424 4.153-2.702 4.686-3.13 2.768-2.221 3.562-2.876 4.257-3.511 1.214-1.108 4.148-4.087 4.599-4.669.216-.28.581-.711.81-.959s.717-.824 1.084-1.282c.366-.457.798-.977.958-1.156s.292-.385.292-.458c0-.124.111-.274.875-1.177.16-.19.291-.403.291-.474s.096-.228.212-.349c.357-.371 1.455-2.099 1.455-2.291 0-.099.075-.18.167-.18.091 0 .166-.067.166-.149 0-.083.286-.626.636-1.209 1.224-2.038 2.771-5.393 3.87-8.392.202-.55.436-1.135.521-1.3.322-.628.379-2.432.08-2.547a.46.46 0 0 1-.273-.391c0-1.139-2.419-1.53-3.608-.583-.843.672-2.987 1.952-3.726 2.224a31 31 0 0 0-.916.352c-1.508.62-12.037.62-13.5-.001-.184-.078-.917-.234-1.631-.347-.713-.113-1.336-.27-1.384-.348-.049-.078-.232-.142-.408-.142s-.815-.163-1.42-.361l-1.101-.361.112-.594c.159-.849.102-10.496-.072-12.184-.081-.779-.266-2.617-.412-4.083s-.335-2.93-.42-3.25c-.085-.321-.242-1.296-.348-2.167-.107-.871-.256-1.733-.333-1.917-.076-.183-.231-1.029-.344-1.88s-.27-1.587-.348-1.635-.141-.289-.141-.536c-.001-.521-.294-1.944-1.005-4.865-.948-3.896-1.605-6.344-2.169-8.084l-.811-2.5c-.608-1.871-1.759-5.135-1.885-5.344-.052-.085-.343-.793-.646-1.572-.304-.78-.6-1.454-.658-1.5s-.209-.44-.335-.875c-.127-.436-.289-.792-.361-.792s-.131-.094-.131-.208c-.002-.582-3.421-6.975-4.302-8.046a10 10 0 0 1-.459-.667 6 6 0 0 0-.528-.716c-.116-.121-.21-.274-.21-.34 0-.065-.45-.601-1-1.19-1.188-1.272-1.164-1.063-.247-2.067.411-.449.748-.862.751-.916.002-.055.264-.39.583-.743.319-.354.579-.705.579-.78s.127-.263.281-.417c.608-.608 2.044-2.689 2.518-3.648 1.951-3.949 2.234-4.763 3.133-9.012.136-.642.314-1.317.395-1.5s.235-.858.341-1.5c.105-.642.259-1.354.341-1.583.743-2.064.739-12.016-.005-13.359-.084-.151-.24-1.089-.346-2.083s-.249-1.883-.318-1.975-.226-.635-.35-1.208-.275-1.042-.337-1.042c-.061 0-.156-.225-.211-.5-.331-1.657-2.53-5.44-4.054-6.975-.305-.307-.554-.612-.554-.677s-.383-.49-.852-.942c-1.333-1.289-1.471-1.406-1.648-1.406-.092 0-.167-.063-.167-.139 0-.155-1.966-1.726-3.106-2.484-2.535-1.684-6.984-3.94-8.506-4.313-.259-.063-.509-.16-.555-.216s-.758-.313-1.583-.573c-.825-.261-1.725-.549-2-.64-1.913-.636-6.329-1.532-8.917-1.81-2.067-.222-2.44-.195-2.902.217M135.97 183.401c4.065.254 4.217.311 2.901 1.092-.525.311-1.269.797-1.655 1.078-.385.282-1.274.925-1.976 1.429s-1.402 1.029-1.556 1.167c-.155.137-.653.547-1.107.911-.455.363-1.078.907-1.385 1.208s-.611.547-.675.547c-.133 0-4.85 4.58-4.85 4.71 0 .046-.282.379-.625.738a45 45 0 0 0-2.89 3.386c-.464.595-.944 1.208-1.068 1.361a5 5 0 0 0-.42.643c-.107.2-.413.592-.679.871s-.485.578-.485.665c0 .086-.292.581-.648 1.1-.79 1.15-1.686 2.603-2.02 3.276-.136.275-.286.538-.332.584-.194.193-.5.846-.5 1.067 0 .131-.068.263-.151.294-.133.049-1.439 2.692-2.128 4.305l-.482 1.125c-1.17 2.715-2.738 7.796-3.15 10.209-.023.137-.09.362-.147.5-.058.137-.184.775-.281 1.416l-.339 2.25c-.214 1.417-.466 3.861-.6 5.813l-.107 1.563-.963-.101c-1.898-.198-5.018-.967-5.858-1.444-.159-.09-.369-.164-.467-.164-.316 0-4.041-1.863-5.376-2.689-1.548-.958-2.567-1.784-4.343-3.519-.727-.711-1.386-1.292-1.465-1.292s-.143-.079-.143-.176-.436-.682-.969-1.301a38 38 0 0 1-1.788-2.282c-.45-.637-.905-1.247-1.009-1.356-.521-.544-2.386-3.892-2.491-4.472-.066-.364-.174-.738-.24-.83-.596-.824-.601-4.778-.008-6.666.551-1.755 1.342-3.969 1.487-4.162.071-.095.233-.434.36-.755.555-1.405 2.881-5.288 4.255-7.106.629-.832.717-.938 1.563-1.894.366-.412.666-.839.669-.947.002-.109.154-.245.338-.303.183-.058.333-.213.333-.345s.061-.238.135-.238.731-.573 1.458-1.272c1.582-1.521 1.816-1.724 2.574-2.235.32-.217.62-.443.666-.502.407-.527 6.162-3.553 8.376-4.403 2.249-.865 5.808-1.723 9.291-2.242a48 48 0 0 0 2.083-.356c2.382-.487 12.904-.63 18.887-.256m-3.553 28.116c-.55.079-1.15.214-1.334.3a4.7 4.7 0 0 1-.827.266c-.272.059-.812.253-1.199.429-.388.177-.779.321-.869.321s-.265.094-.389.209c-.123.114-.575.385-1.004.602a9 9 0 0 0-1.439.958c-.362.311-.736.565-.83.565s-.218.15-.276.333-.208.333-.333.333-.276.153-.335.339c-.06.187-.244.468-.409.625-1.672 1.588-1.231 4.272.795 4.851 1.279.365 1.857.041 3.449-1.935.911-1.131 3.355-2.705 4.21-2.711.116-.001.341-.071.5-.154 1.011-.532 5.345-.524 5.948.011a.66.66 0 0 0 .383.141c.124 0 .535.15.915.333 1.786.863 4.291-1.514 3.402-3.228-1.086-2.093-5.724-3.252-10.358-2.588m135.916 1.65c0 .091-.15.166-.333.166s-.333.075-.333.167-.102.167-.227.167c-.128 0-.94 1.432-1.866 3.291-.902 1.811-1.704 3.38-1.784 3.488-.163.223-1.068-.236-1.79-.908a6.7 6.7 0 0 0-1.042-.743c-.343-.196-.625-.418-.625-.492s-.103-.136-.229-.136c-.127 0-.33-.12-.451-.267-.122-.147-.631-.529-1.131-.849-.501-.32-1.015-.687-1.145-.816-.129-.129-.309-.235-.401-.235-.091 0-.279-.113-.416-.25-.326-.326-1.539-.333-1.662-.01-.051.132-.311.288-.579.346-.267.059-.486.214-.486.344s-.075.237-.166.237-.167.15-.167.333-.075.333-.167.333c-.091 0-.166.413-.166.917s.075.917.166.917.167.112.167.248c0 .137.15.343.333.457.184.115.334.303.334.418 0 .116.101.21.226.21.124 0 .706.356 1.292.792 1.199.889 1.347.995 2.836 2.03.584.406 1.087.8 1.118.875.03.075.143.139.25.143s.483.262.836.574l.641.566-2.029 4.135a2777 2777 0 0 0-2.391 4.885c-.199.412-.438.804-.529.869-.734.523.148 3.631 1.031 3.631.12 0 .219.075.219.167 0 .091.37.166.823.166s.87-.075.927-.166c.056-.092.22-.167.363-.167.343 0 1.168-.944 1.42-1.625.11-.298.26-.542.333-.542s.134-.089.134-.198c0-.198 2.961-6.347 3.436-7.135.138-.229.293-.548.343-.708.093-.292.477-.402.582-.167.062.141 1.409 1.141 2.847 2.115.527.357.958.706.958.776s.169.179.375.241c.207.063.563.283.792.49.465.42 2.563 1.883 3.886 2.711 1.898 1.188 3.947.172 3.947-1.958 0-1.351-.662-2.044-4.221-4.417-1.324-.882-1.495-1.004-2.974-2.125-.696-.527-1.343-.958-1.438-.958s-.197-.061-.228-.135c-.03-.074-.487-.458-1.014-.853-1.004-.753-1.055-.837-.801-1.306 3.493-6.453 3.984-8.443 2.376-9.623-.777-.571-2.2-.84-2.2-.416m-134.916 7.778c-5.915.65-11.521 6.903-8.608 9.601 1.099 1.018 3.858.659 3.858-.501 0-1.575 3.636-4.045 5.955-4.045.35 0 .803-.116 1.006-.258.645-.452 2.722-3.505 2.6-3.822-.258-.672-2.828-1.193-4.811-.975m62.166 12.888c-.056.092-.23.167-.386.167-.243 0-1.364 1.032-1.364 1.257 0 .043-.562.938-1.25 1.988s-1.25 1.987-1.25 2.082-.056.174-.125.176c-.068.002-.35.375-.625.83-.6.993-.492.984-1.435.121a110 110 0 0 0-1.826-1.621 347 347 0 0 1-1.481-1.289c-1.328-1.166-1.626-1.39-1.966-1.481-.206-.054-.375-.166-.375-.248 0-.179-1.449-.201-1.528-.023-.03.068-.275.248-.543.399-1.003.562-1.522 2.103-1.03 3.052.22.424 1.858 2.09 2.055 2.09.05 0 .255.169.454.375.2.207.679.638 1.065.959s1.28 1.121 1.988 1.779l1.287 1.196-.374.398c-.206.219-.374.452-.374.518 0 .065-.338.622-.75 1.237s-.75 1.206-.75 1.314-.067.222-.149.252c-.197.073-1.518 2.073-1.518 2.298a.17.17 0 0 1-.166.174c-.092 0-.167.107-.167.236 0 .13-.061.262-.135.292-.987.407-1.838 3.36-1.297 4.501.433.911 2.932 1.881 2.932 1.138 0-.092.15-.167.333-.167s.334-.075.334-.166.093-.168.208-.169c.195-.002.95-1.009.965-1.287.004-.07.229-.387.5-.705s.493-.64.493-.716c0-.077.489-.868 1.087-1.757 1.396-2.077 1.317-1.956 2.011-3.075.705-1.135.638-1.121 1.514-.333 1.468 1.32 2.608 2.297 2.833 2.428.129.076.475.376.77.667 2.864 2.834 5.071 3.273 5.793 1.155.102-.298.254-.542.339-.542.256 0 .174-1.275-.097-1.5a.76.76 0 0 1-.25-.503c0-.162-.281-.533-.625-.823-.898-.758-2.45-2.132-3.438-3.044-.469-.433-.907-.789-.973-.792-.065-.002-.365-.249-.666-.549a10.5 10.5 0 0 0-1.089-.928c-.492-.348-.753-1.027-.396-1.027.081 0 .24-.225.354-.5s.268-.5.342-.5.183-.15.241-.333c.058-.182.197-.426.309-.541s.42-.583.685-1.04.548-.907.627-1c.237-.278 1.302-1.949 1.731-2.717.755-1.353.297-2.9-1.045-3.531-.77-.362-1.638-.444-1.807-.172m65.344 50.503c.361.184.769.408.906.497.37.239 2.604 1.229 3.75 1.662.55.208 1.113.432 1.25.499.138.067.663.217 1.167.334s1.067.275 1.25.35c1.412.583 5.852 1.143 9.125 1.15 1.444.003 2.625.052 2.625.11 0 .125-.8 1.685-1.399 2.729-.236.412-.483.862-.549 1-.836 1.759-3.83 6.154-5.578 8.189-.444.517-.807.977-.807 1.023 0 .211-4.709 5.014-5.925 6.043-1.52 1.286-1.918 1.63-2.345 2.027-.217.202-.732.599-1.146.883s-.751.589-.751.676-.1.159-.223.159c-.223 0-1.811 1.14-1.916 1.375-.03.068-.127.125-.214.125s-.941.525-1.897 1.166c-.956.642-1.811 1.167-1.899 1.167s-.26.099-.381.219c-.31.309-1.86 1.156-4.387 2.398-2.878 1.415-2.935 1.441-4.666 2.143-.825.334-1.737.712-2.026.84-.288.129-.577.233-.641.233s-.353.106-.641.235c-.918.41-3.428 1.198-6.109 1.918-.596.16-1.196.336-1.333.392-.138.056-.7.19-1.25.297s-1.075.251-1.167.32-.542.175-1 .236c-.458.06-1.208.186-1.667.279-2.227.454-6.399 1.037-9.666 1.351-2.436.234-12.812.232-15.334-.003-1.1-.102-3.2-.341-4.666-.531a221 221 0 0 0-3.5-.43c-.459-.048-.984-.151-1.167-.229s-.671-.187-1.083-.244a30 30 0 0 1-1.5-.252l-2.084-.417c-.733-.146-1.483-.338-1.666-.426-.184-.088-.821-.267-1.417-.397a48 48 0 0 1-2.583-.676c-.825-.241-1.95-.567-2.5-.725-.55-.157-1.075-.329-1.167-.383s-.525-.193-.963-.312c-.437-.118-.836-.28-.884-.359s-.236-.144-.415-.144-.456-.066-.615-.147c-.414-.21-1.005-.451-1.923-.782-.611-.221-.774-.351-.692-.555.099-.246.847-3.88 1.239-6.026.093-.509.17-1.255.17-1.656v-.73l.339.365c.187.201.45.365.584.365s.243.062.243.139.619.443 1.375.814c2.267 1.112 2.883 1.38 3.178 1.38.154 0 .281.066.281.147s.355.236.789.346.866.256.958.327c.093.07.544.222 1.003.336s.983.273 1.166.352c.512.221 3.317.822 5.084 1.09.87.132 1.888.31 2.262.396 2.422.556 14.87.565 16.297.011.196-.077 1.182-.227 2.191-.335s2.058-.261 2.333-.339 1.25-.293 2.167-.475c2.473-.492 3.959-.839 4.333-1.011.183-.085.746-.246 1.25-.359s1.029-.258 1.167-.325c.137-.066.55-.209.916-.318.367-.109.817-.259 1-.334.184-.074 1.121-.416 2.084-.761.962-.344 2.139-.803 2.614-1.02s.907-.395.958-.395c.394 0 7.282-3.606 8.585-4.495.554-.377 1.166-.786 2.254-1.505 1.162-.767 3.434-2.494 3.775-2.87.148-.163.349-.296.447-.296s.225-.15.283-.334c.059-.183.183-.333.277-.333.406 0 5.136-4.871 5.139-5.292 0-.114.072-.208.16-.208.087 0 .379-.319.649-.708.269-.39.648-.889.841-1.109s.351-.46.351-.533.232-.477.515-.897c.633-.938 2.318-4.295 2.318-4.618 0-.129.066-.306.147-.393.138-.151.273-.553.934-2.784.156-.527.3-.958.32-.958s.332.151.693.336"/><path fill="#ec1c14" d="M193.375 28.941c-.598.131-.491.467 1.561 4.931a698 698 0 0 1 2.566 5.628c.345.779.925 2.054 1.287 2.833s1.851 4.004 3.307 7.167c3.207 6.963 2.737 6.436 5.868 6.575 1.349.061 2.79.176 3.203.257.412.08 1.987.265 3.5.41 4.001.383 10.001 1.264 12.524 1.839.608.139 1.563.252 2.12.252.713 0 1.273.119 1.893.4.484.22 1.367.489 1.963.598.595.109 1.233.26 1.416.336.184.075.821.229 1.417.342s1.155.269 1.242.348.288.143.448.143c.159 0 .875.182 1.591.404.716.221 2.09.636 3.052.92s2.763.859 4 1.276 2.715.908 3.284 1.092l1.034.334-.743 1.029a70 70 0 0 0-1.299 1.865c-.305.459-.661.947-.79 1.083-.13.136-.571.734-.98 1.33s-.973 1.394-1.25 1.774c-.278.38-.881 1.221-1.339 1.869a44 44 0 0 1-1.208 1.643c-.206.256-.375.521-.375.591s-.217.354-.483.631c-.265.278-.574.727-.687.999-.112.271-.259.493-.327.493s-.393.394-.723.875c-1.256 1.83-1.661 2.377-1.802 2.431-.08.03-.145.162-.145.292s-.07.236-.155.236c-.086 0-.201.141-.255.313-.055.173-.256.491-.447.709-.19.217-.651.844-1.024 1.394-.372.55-.722 1.038-.777 1.084-.055.045-.226.271-.381.5-.154.229-.583.829-.953 1.333s-.925 1.292-1.234 1.75c-.31.458-.723 1.014-.918 1.234s-.356.459-.356.53-.097.228-.216.349c-.253.258-1.009 1.308-3.109 4.322-.408.586-.877 1.21-1.042 1.388s-.3.387-.3.465-.158.308-.351.511c-.454.476-1.23 1.666-1.186 1.82.134.472-2.597 4.397-3.225 4.636-.362.137-.695.552-2.488 3.099-.869 1.235-2.209 3.101-2.38 3.313a29 29 0 0 0-.699 1c-.311.458-.61.87-.665.916-.087.073-1.274 1.71-2.006 2.768-1.172 1.695-1.778 2.531-2.033 2.805-.165.178-.3.385-.3.46s-.19.35-.422.611c-.406.455-.577.695-1.936 2.716-.335.498-.728 1.004-.875 1.126s-.267.316-.267.431-.12.309-.268.431c-.147.122-.574.675-.949 1.229s-.779 1.106-.899 1.227c-.119.121-.217.284-.217.363s-.097.242-.216.363-.94 1.233-1.824 2.47a127 127 0 0 1-1.751 2.417c-.078.092-.455.617-.838 1.167s-.918 1.3-1.19 1.666c-.517.698-1.978 2.778-2.265 3.223-.091.143-.34.451-.552.685a5.5 5.5 0 0 0-.647.918c-.143.27-.351.582-.461.692-.111.111-.683.893-1.271 1.739s-1.275 1.781-1.527 2.079-.458.616-.458.708-.112.258-.249.372c-.136.113-.56.666-.942 1.228-.382.563-.746 1.06-.81 1.106s-.214.271-.334.5c-.119.23-.468.725-.775 1.101-.306.376-.557.766-.557.867s-.102.242-.226.316c-.124.073-.424.433-.666.8a51 51 0 0 1-1.114 1.583c-.37.504-.989 1.358-1.375 1.896-.386.539-.852 1.187-1.036 1.441-.183.253-.698.991-1.144 1.64-.446.65-.915 1.267-1.041 1.372-.127.106-.231.257-.231.336s-.11.277-.244.438c-.481.579-1.923 2.561-1.923 2.642 0 .09-.079.195-.828 1.09-.278.333-.505.683-.505.778s-.057.198-.125.228c-.069.031-.406.468-.75.972a20 20 0 0 1-1.042 1.401c-.229.267-.417.536-.417.599s-.189.333-.421.599c-.232.267-.389.616-.349.776s-.118.573-.35.917c-1.344 1.991-2.407 3.334-2.769 3.499-.228.104-.66.549-.961.99-.301.442-.608.828-.682.858s-.134.162-.134.292-.057.236-.125.237c-.069.001-.255.207-.413.458-.159.252-.551.795-.872 1.208s-.708.975-.86 1.25-.326.537-.387.583-.369.458-.685.917c-.316.458-.632.875-.701.927-.069.051-.111.276-.093.5.04.501-2.379 3.902-3.077 4.326-.259.158-.819.765-1.244 1.35s-.871 1.162-.991 1.284c-.121.121-.219.284-.219.363 0 .078-.094.242-.208.363-.455.481-1.084 1.407-1.196 1.762-.065.206-.176.375-.246.375-.146 0-1.128 1.311-3.009 4.016a71 71 0 0 1-.87 1.234c-.798 1.035-2.353 3.197-2.5 3.476-.103.196-.236.394-.296.44s-.367.459-.684.917c-.316.458-.615.871-.666.917-.05.046-.515.683-1.034 1.416a79 79 0 0 1-1.075 1.5c-.073.092-.32.448-.549.791s-.473.624-.542.625c-.069 0-.125.096-.125.211 0 .116-.169.397-.376.625-.208.228-.859 1.128-1.449 1.998s-1.196 1.696-1.347 1.834c-.151.137-.38.447-.51.689-.129.241-.54.841-.914 1.333s-.931 1.37-1.24 1.952-.808 1.246-1.111 1.476c-.302.231-.513.48-.467.554s.02.159-.056.19c-.348.14-2.881 3.852-2.791 4.088.126.328-2.102 3.473-2.731 3.855-.489.298-1.012.89-1.68 1.903-.226.343-.468.625-.536.625-.069.001-.125.082-.125.18s-.563.932-1.25 1.854-1.25 1.735-1.25 1.807c0 .073-.263.402-.584.732-.321.331-.583.703-.583.828 0 .124-.122.328-.272.452s-.431.461-.625.749c-.909 1.348-1.839 2.657-1.941 2.733-.062.046-.303.388-.536.76-.361.576-1.825 2.624-2.256 3.156-.075.092-.304.517-.511.945s-.709 1.086-1.117 1.462-.742.742-.742.814-.169.36-.375.639c-.206.28-.525.716-.708.97a86 86 0 0 1-.919 1.233 35 35 0 0 0-1 1.395c-.228.343-.471.624-.54.625-.068 0-.125.084-.125.187 0 .203-1.166 1.863-1.372 1.953-.07.03-.128.161-.128.291s-.075.236-.166.236a.17.17 0 0 0-.167.174c0 .095-.15.335-.333.531-.184.197-.334.457-.334.577s-.075.218-.168.218c-.092 0-.411.368-.708.818-.601.91-2.978 4.219-3.124 4.349-.286.254-1.18 1.843-1.105 1.964.171.277-2.25 3.703-2.616 3.703-.228 0-1.26 1.172-1.611 1.83-.121.227-.302.496-.402.597s-.313.365-.474.587c-2.92 4.032-3.377 4.677-3.625 5.11a6 6 0 0 1-.691.913c-.242.261-.532.697-.645.969-.112.271-.272.494-.355.494s-.354.32-.604.711c-.445.695-.782 1.165-2.07 2.887-.349.467-.635.904-.635.971s-.115.236-.256.377-.572.707-.958 1.259c-.387.552-.853 1.21-1.036 1.461-.666.914-1.847 2.577-2.448 3.447-.338.49-.732 1.007-.875 1.15s-.26.325-.26.403-.097.242-.216.363c-.118.122-.587.744-1.041 1.383-.455.64-.994 1.39-1.199 1.667a73 73 0 0 0-.952 1.337c-.318.459-.73 1.021-.915 1.25s-.338.474-.34.543-.187.332-.41.584c-.447.503-1.015 1.27-1.696 2.29a75 75 0 0 1-1.557 2.167c-.612.825-1.163 1.633-1.223 1.795-.149.399-.618.559-.794.271-.223-.364-.72-1.017-.949-1.249-.115-.115-.208-.277-.208-.359s-.169-.302-.375-.489c-.207-.188-.788-.922-1.292-1.631-.504-.71-1.029-1.42-1.167-1.579a6 6 0 0 1-.416-.543c-.092-.14-.58-.837-1.084-1.548a98 98 0 0 1-1.5-2.176 390 390 0 0 0-1.551-2.326c-.532-.793-1.05-1.623-1.151-1.846-.102-.222-.247-.404-.324-.404s-.14-.079-.14-.176c0-.159-.738-1.386-2.274-3.779-.308-.48-.56-.902-.56-.938 0-.037-.327-.658-.727-1.381a152 152 0 0 1-4.569-8.892c-1.6-3.364-1.704-3.596-1.704-3.803 0-.109-.075-.197-.166-.197s-.167-.114-.167-.253c0-.138-.074-.382-.164-.541-.196-.349-1.33-3.11-2.035-4.956a85 85 0 0 0-.718-1.834 23 23 0 0 1-.416-1.083c-.278-.789-.848-2.34-1.01-2.75-.275-.694-1.322-4.006-1.791-5.667-.155-.55-.339-1.025-.408-1.055s-.125-.183-.125-.339-.115-.693-.255-1.194c-1.703-6.075-2.974-11.85-3.905-17.745-.461-2.914-.658-4.404-.665-5.032-.004-.384-.072-.738-.15-.786s-.195-.821-.26-1.718c-.066-.897-.242-3.168-.393-5.047-.644-8.041-.291-22.422.727-29.584.052-.366.202-1.454.333-2.416.358-2.635.669-4.646.876-5.667.102-.504.452-2.267.777-3.917.324-1.65.737-3.562.916-4.25a155 155 0 0 0 1.106-4.5c.136-.596.31-1.233.388-1.416.078-.184.235-.709.349-1.167s.262-.908.327-1c.066-.092.169-.467.23-.833.06-.367.215-.93.344-1.25.129-.321.514-1.484.856-2.584s.674-2.075.738-2.166c.063-.092.169-.392.235-.667s.213-.725.328-1 .305-.763.421-1.083c.553-1.533 1.162-3.139 1.391-3.667.138-.321.573-1.371.965-2.333.946-2.325 1.268-3.049 3.147-7.084.996-2.14 1.412-2.988 1.511-3.083.047-.046.489-.871.982-1.833a82 82 0 0 1 1.538-2.863c.354-.612.641-1.324.638-1.583-.009-.732-14.639-26.123-15.089-26.187-.271-.039-.565.282-1.376 1.5a72 72 0 0 1-1.164 1.716c-.231.29-3.051 4.607-3.363 5.148-.165.285-.931 1.569-1.703 2.852s-1.587 2.671-1.81 3.083-.444.788-.49.834-.213.346-.372.666a56 56 0 0 1-1.037 1.917c-1.349 2.4-3.195 6.019-4.508 8.833-.342.734-.913 1.954-1.269 2.712S34 136.784 34 136.92s-.075.247-.167.247a.17.17 0 0 0-.166.174c0 .096-.15.486-.334.865-.183.379-.333.759-.333.843s-.176.504-.392.933-.488 1.078-.605 1.441-.269.735-.336.827c-.068.092-.217.455-.33.808-.114.352-.311.84-.438 1.083-.126.243-.231.506-.231.584-.001.078-.106.378-.235.666-.128.289-.312.751-.409 1.026s-.483 1.325-.86 2.333c-.376 1.008-.75 2.058-.83 2.333-.217.749-1.677 5.117-1.837 5.5-.077.184-.232.746-.344 1.25-.113.504-.267 1.029-.342 1.167-.076.137-.259.7-.405 1.25l-.579 2.167c-.171.641-.505 1.879-.743 2.75-.238.87-.574 2.22-.746 3s-.505 2.241-.737 3.25a125 125 0 0 0-.587 2.666c-.849 4.302-1.446 7.655-1.692 9.5-.097.734-.251 1.859-.341 2.5-.265 1.898-.496 3.89-.656 5.667-.43 4.786-.518 5.921-.682 8.833-.187 3.319-.243 15.827-.08 17.834.052.641.183 2.912.29 5.046s.259 3.92.338 3.969c.078.048.142.65.142 1.337 0 .688.072 1.752.159 2.366.088.613.241 1.79.34 2.615.187 1.541.297 2.286.764 5.167l.486 3c.233 1.444 1.288 6.714 1.667 8.333.129.55.382 1.6.562 2.333l.655 2.667c.638 2.603 1.739 6.586 1.889 6.833.056.092.196.579.312 1.084.115.504.262.991.326 1.083.063.092.207.504.319.917.112.412.266.9.342 1.083s.267.783.426 1.333.385 1.225.504 1.5.254.65.301.834c.156.617 1.557 4.492 1.921 5.313.198.447.361.882.361.967s.14.469.313.854c.172.384.58 1.383.908 2.219a66 66 0 0 0 1.864 4.313c.216.459.443 1.04.505 1.292s.164.458.228.458c.063 0 .214.282.334.625.416 1.183 4.839 9.962 6.36 12.625a541 541 0 0 1 1.895 3.334c.987 1.778 3.092 5.214 3.828 6.25.294.412.587.862.652 1 .138.291.544.915 2.352 3.611.727 1.085 1.369 2.009 1.427 2.055s.359.459.668.917.624.858.698.889c.074.03.134.123.134.206s.109.283.242.445c.132.161.934 1.231 1.781 2.377s1.584 2.12 1.638 2.166.356.421.672.834a69 69 0 0 0 1.412 1.759A165 165 0 0 1 60 326.163c.927 1.157 2.853 3.404 3.073 3.587.111.092.271.291.356.442.725 1.295 12.009 12.692 15.756 15.914l1.719 1.477c.533.459 1.135.984 1.337 1.167s.729.633 1.171 1c.441.367.991.835 1.22 1.042.229.206.47.375.534.375s.338.206.607.458c.63.59 1.855 1.58 2.205 1.781.15.086.497.367.772.624.275.258.553.469.619.469.065.001.252.137.416.303s1.011.817 1.882 1.446c.87.629 1.62 1.194 1.666 1.256s.266.209.49.327c.433.228.511.286 1.213.909.249.22.606.449.792.508s.339.173.339.252.149.192.332.25.427.199.542.314.621.483 1.126.818a50 50 0 0 1 1.599 1.115c.376.276.731.503.789.503s.976.567 2.039 1.261c1.063.693 2.18 1.398 2.48 1.567 1.15.646 1.336.761 1.556.964.125.114.329.208.453.208.125 0 .326.098.447.219.405.402 6.049 3.595 8.22 4.65.367.178.779.388.917.467.953.544 8.396 4.164 8.562 4.164.053 0 .635.262 1.294.583s1.259.584 1.334.584c.074 0 .605.212 1.18.471.576.259 1.571.678 2.213.931.642.254 1.392.563 1.667.688 1.012.461 3.583 1.41 3.82 1.41.134 0 .285.066.335.148s.298.2.551.263.685.211.96.33c.275.118.838.314 1.25.434s.825.266.917.324c.092.059 1.067.392 2.167.742 1.1.349 2.15.691 2.333.761.183.069.633.209 1 .31.367.1 1.148.334 1.736.519.588.184 1.192.335 1.342.335.149 0 .343.067.43.147.087.081.609.261 1.159.401.55.139 1.9.493 3 .788 2.778.743 5.083 1.29 6.75 1.602.779.146 1.566.328 1.75.406.183.077 1.008.26 1.833.406s2.287.415 3.25.597c2.843.538 5.726.972 8.833 1.329 1.605.184 3.255.405 3.667.49.412.086 2.063.238 3.667.338s3.291.257 3.75.348c2.141.425 23.044.426 25.166.001.459-.092 2.184-.252 3.834-.356s3.225-.252 3.5-.329 1.925-.297 3.666-.489c3.212-.354 5.75-.734 8.917-1.336.963-.183 2.425-.452 3.25-.598s1.65-.327 1.833-.402.859-.232 1.5-.346c2.445-.435 9.255-2.207 13.5-3.513 1.694-.521 6.222-2.011 6.5-2.138.184-.084.559-.202.834-.262a6.5 6.5 0 0 0 1-.327c.275-.12.762-.309 1.083-.421s.733-.265.917-.341c.183-.076.633-.228 1-.338.366-.11.741-.256.833-.325.092-.068.354-.179.583-.245.23-.067.829-.294 1.334-.506.504-.212 1.516-.625 2.25-.918 1.3-.52 1.906-.781 3.713-1.598.484-.219.917-.398.962-.398s.699-.291 1.453-.646c2.364-1.112 3.293-1.521 3.46-1.521.089 0 .162-.063.162-.14s.3-.239.666-.36.667-.283.667-.36.074-.14.163-.14.784-.306 1.542-.68 1.603-.791 1.878-.925c.275-.135.613-.313.75-.395.138-.083.588-.319 1-.525a59 59 0 0 0 2.25-1.237c.825-.475 1.763-1.004 2.084-1.177 1.58-.853 4.391-2.505 4.639-2.727.153-.138.616-.432 1.028-.653s1.499-.89 2.416-1.486c.917-.595 2.052-1.33 2.523-1.632s.96-.646 1.086-.764.492-.36.811-.536.617-.364.663-.417.684-.502 1.417-.998 1.371-.953 1.417-1.016c.045-.063.263-.21.484-.326s.558-.359.75-.539c.192-.179.952-.752 1.689-1.272.737-.519 1.45-1.04 1.583-1.156a21 21 0 0 1 1.42-1.132c.456-.33 2.434-1.929 3.309-2.676.267-.228.617-.485.778-.571.162-.087.64-.477 1.064-.867.423-.39 1.01-.91 1.305-1.156l.998-.833a42 42 0 0 0 1.445-1.322c.54-.515 1.1-.981 1.245-1.037s.263-.216.263-.356.076-.255.169-.255c.603 0 13.197-12.694 13.73-13.84a.9.9 0 0 1 .458-.418c.17-.054.31-.165.31-.246s.168-.322.375-.534c.206-.212.623-.697.927-1.077s.775-.941 1.047-1.247c.782-.876.985-1.121 2.401-2.889.733-.916 1.427-1.765 1.541-1.886.115-.121.209-.282.209-.358 0-.075.206-.363.458-.639.574-.63 1.568-1.942 3.939-5.2.433-.596.888-1.205 1.01-1.355s.415-.6.65-1.002c.236-.403.563-.88.727-1.062.385-.426 1.382-2.056 1.382-2.258 0-.086.063-.156.139-.156s.39-.394.696-.875a552 552 0 0 1 1.612-2.502c.579-.895 1.053-1.663 1.053-1.705s.263-.489.584-.99c.321-.502.583-.948.583-.991s.359-.666.797-1.383c1.271-2.077 2.241-3.801 3.547-6.304 1.315-2.522 4.656-9.22 4.656-9.337 0-.039.225-.563.5-1.163s.5-1.202.5-1.338c0-.135.075-.245.167-.245a.17.17 0 0 0 .166-.169c0-.092.16-.524.355-.958l.655-1.457c.165-.366.575-1.379.912-2.25.336-.871.668-1.658.738-1.75.07-.091.181-.391.247-.666.065-.275.219-.725.341-1s.497-1.25.834-2.167.713-1.929.835-2.25.425-1.221.673-2c.669-2.098.764-2.384.915-2.75.075-.183.34-1.008.588-1.833.249-.825.584-1.913.744-2.417a16 16 0 0 0 .404-1.5c.062-.321.179-.733.26-.917.184-.414 1.103-3.793 1.247-4.583.059-.321.171-.771.25-1 .125-.361.997-4.146 1.23-5.333.045-.229.343-1.692.661-3.25.319-1.559.63-3.246.691-3.75.06-.505.177-1.142.259-1.417.145-.487.418-2.356.912-6.25.134-1.054.32-2.479.414-3.167s.17-1.789.17-2.448c-.001-.659.062-1.238.139-1.285.077-.048.229-1.908.338-4.135s.245-4.648.303-5.382c.128-1.612.119-12.497-.012-14.25-.051-.687-.181-3.108-.289-5.38s-.26-4.17-.338-4.218-.142-.606-.142-1.238c0-.633-.077-1.734-.17-2.449s-.246-1.936-.34-2.715a79 79 0 0 0-.331-2.416c-.088-.55-.273-1.75-.411-2.667-.689-4.571-2.633-14.164-3.124-15.417-.054-.137-.188-.662-.298-1.166-.349-1.599-1.562-5.976-1.825-6.584-.079-.183-.232-.727-.339-1.209-.108-.481-.263-.917-.346-.968s-.15-.236-.15-.411-.195-.902-.433-1.615a48 48 0 0 1-.571-1.797c-.122-.446-.44-1.348-2.086-5.916-.248-.688-.516-1.322-.597-1.409a.65.65 0 0 1-.146-.383c0-.123-.15-.535-.333-.914-.184-.38-.334-.752-.334-.828 0-.138-1.415-3.588-2.016-4.916-.175-.384-.317-.743-.317-.797s-.326-.79-.724-1.634a172 172 0 0 1-1.022-2.203 116 116 0 0 0-3.602-7.333 170 170 0 0 1-1.22-2.333c-.183-.367-.393-.692-.466-.723-.073-.03-.133-.131-.133-.225 0-.182-1.76-3.388-2.088-3.802-.198-.251-1.317-2.256-1.651-2.957-.097-.206-.234-.375-.302-.375-.069-.001-.125-.081-.125-.177 0-.097-.402-.79-.894-1.542a122 122 0 0 1-1.672-2.638c-.427-.699-.925-1.442-1.106-1.65-.181-.209-.328-.437-.328-.508s-.103-.232-.229-.358c-.125-.126-.353-.45-.505-.72-.152-.271-.654-1.017-1.116-1.659a82 82 0 0 1-1.393-2 18 18 0 0 0-.864-1.2c-.171-.202-.711-.933-1.201-1.625s-.954-1.258-1.031-1.258-.184-.141-.238-.314c-.055-.172-.234-.467-.397-.656a14 14 0 0 1-.62-.788 11 11 0 0 0-.492-.635c-.093-.105-.642-.79-1.22-1.524a94 94 0 0 0-2.694-3.29c-.229-.265-.604-.71-.834-.991a26 26 0 0 0-.75-.879c-.183-.203-.818-.924-1.411-1.604a114 114 0 0 0-3.047-3.345c-.16-.169-.292-.377-.292-.463 0-.085-.15-.203-.333-.261s-.333-.208-.333-.333-.15-.275-.334-.334c-.183-.058-.333-.183-.333-.279 0-.17-6.382-6.637-6.55-6.637-.047 0-.569-.469-1.16-1.042-1.723-1.671-2.625-2.499-3.957-3.628a73 73 0 0 1-1.75-1.524 22 22 0 0 0-.916-.801c-1.265-1.023-1.605-1.304-2.17-1.797-.341-.298-.705-.542-.809-.542-.103 0-.188-.064-.188-.143s-.544-.561-1.208-1.071c-.665-.511-1.374-1.084-1.577-1.274s-.414-.345-.47-.345-.201-.094-.323-.208c-.258-.244-3.714-2.788-5.657-4.164-1.693-1.199-6.766-4.589-7.765-5.188-.413-.247-1.2-.742-1.75-1.1a66 66 0 0 0-2.417-1.467 432 432 0 0 1-2.916-1.7 89 89 0 0 0-3.167-1.759 410 410 0 0 1-2.833-1.503c-1.718-.923-4.832-2.477-6.167-3.076-.642-.288-1.617-.737-2.167-.997a66 66 0 0 0-1.75-.797c-.412-.178-1.312-.567-2-.866-.687-.298-1.7-.729-2.25-.958s-1.3-.559-1.666-.734c-.367-.174-.764-.317-.883-.317s-.527-.149-.907-.333c-.379-.183-.751-.333-.827-.333s-.455-.143-.843-.319c-.842-.379-2.089-.834-4.457-1.627-.963-.322-1.9-.648-2.083-.723-1.533-.632-9.398-2.975-11.75-3.5-.505-.113-1.067-.266-1.25-.341-.341-.139-1.75-.478-3.834-.923-.641-.136-1.279-.295-1.416-.352-.138-.058-.925-.237-1.75-.398l-2.834-.554c-.733-.143-1.745-.345-2.25-.45-5.04-1.043-15.756-2.324-22.75-2.721-2.252-.128-16.237-.254-16.708-.151m91.458 53.884c.046.06.457.367.913.684.456.316.906.633 1 .704s.733.538 1.421 1.038a60 60 0 0 1 1.781 1.337c.292.237.817.622 1.167.858.349.235.695.531.768.658.074.126.205.229.292.229s.295.132.463.292c.466.446 1.157 1.016 2.008 1.655.424.319.846.667.937.775s.542.494 1 .86c.938.749 2.202 1.882 4.723 4.23.947.883 1.866 1.673 2.041 1.755.176.083.32.259.32.391s.15.279.333.327.333.146.333.218.272.391.605.71.67.645.75.725c.595.592 4.817 5.117 5.812 6.229.229.256.682.754 1.006 1.107a60 60 0 0 1 1.733 2.06c.63.779 1.193 1.454 1.251 1.5.059.045.763.925 1.565 1.953s1.557 1.968 1.676 2.087.427.553.685.963c.257.411.521.784.587.83.123.085.555.686 1.993 2.771.451.653.936 1.304 1.078 1.446.143.143.259.307.259.366 0 .096.864 1.412 1.204 1.834.313.388 3.393 5.303 4.274 6.82.217.374.528.867.69 1.096s.418.679.57 1c.48 1.017.964 1.914 1.079 2 .062.046.371.609.689 1.25.318.642.615 1.204.661 1.25.146.147 2.981 6.009 3.747 7.75.121.275.407.913.636 1.417s.619 1.404.867 2 .595 1.402.771 1.792c.177.389.366.933.421 1.208s.153.5.219.5.214.319.33.708c.115.39.267.784.337.875.069.092.18.392.245.667.066.275.222.725.347 1s.376.95.558 1.5.424 1.262.537 1.583c.528 1.5.96 2.815 1.149 3.5.114.413.265.9.336 1.084.071.183.212.633.313 1 .239.865.821 2.861 1.019 3.5.304.974 1.23 4.809 1.832 7.583.169.779.32 1.417.336 1.417.067 0 .86 4.252 1.166 6.25.105.687.264 1.7.353 2.25.824 5.088 1.296 10.598 1.763 20.559.279 5.956-.88 20.082-2.285 27.843-.09.497-.164 1.186-.164 1.532s-.067.671-.149.722-.244.748-.359 1.551c-.116.803-.264 1.534-.33 1.626-.067.092-.209.692-.316 1.333-.108.642-.266 1.392-.353 1.667s-.453 1.7-.815 3.167c-.985 3.987-3.012 10.752-3.739 12.478-.15.355-.272.75-.272.877s-.141.55-.314.938c-.172.389-.406.969-.519 1.29s-.304.808-.424 1.083a7.5 7.5 0 0 0-.332.96c-.063.253-.181.501-.263.552-.081.05-.148.2-.148.333s-.144.56-.32.949c-.613 1.351-1.347 3.096-1.347 3.203 0 .059-.218.572-.484 1.139l-1.265 2.698c-1.007 2.15-3.64 7.475-3.75 7.583-.046.046-.212.346-.369.667-.156.32-.398.771-.537 1-.839 1.384-1.761 3.049-1.761 3.18 0 .084-.075.153-.167.153s-.167.066-.167.146-.34.698-.756 1.375c-.8 1.3-.872 1.419-1.66 2.725-.579.959-4.145 6.303-4.618 6.921-.176.229-.873 1.166-1.549 2.083-1.711 2.321-2.109 2.846-2.557 3.374-.215.252-.515.65-.667.882-.263.403-.383.548-1.284 1.555-.212.237-.597.714-.855 1.06a13 13 0 0 1-.555.712c-.048.046-.536.605-1.084 1.242-.549.637-1.111 1.284-1.248 1.437-.138.152-.625.698-1.083 1.211-2.749 3.081-7.506 7.944-7.772 7.944-.08 0-.145.112-.145.25 0 .137-.064.25-.142.25-.145 0-.326.157-2.206 1.916a86 86 0 0 1-2.319 2.068c-.687.588-1.325 1.157-1.416 1.265-.092.108-.541.489-.997.848-.457.359-.982.788-1.167.953s-1.236 1.009-2.336 1.874-2.277 1.8-2.614 2.075c-.338.275-.694.501-.792.501s-.178.075-.178.166-.112.167-.25.167c-.137 0-.251.056-.252.125s-.621.561-1.375 1.094c-2.554 1.803-3.705 2.61-3.956 2.774-3.17 2.063-3.155 2.053-5.667 3.631a48 48 0 0 1-3.48 2.027c-.24.128-.474.279-.52.333-.046.055-.308.212-.583.349-.275.138-.538.287-.583.333-.405.407-11.364 5.807-12.875 6.345-.344.122-.625.277-.625.343s-.244.173-.542.238a5.4 5.4 0 0 0-1.123.43c-.319.171-.643.311-.719.311s-.548.188-1.049.417-.984.417-1.075.417-.294.074-.453.166c-.508.292-8.421 3.089-10.123 3.578-.458.132-1.358.397-2 .589a114 114 0 0 1-8.083 2.128c-.687.154-1.287.323-1.333.375s-.684.189-1.417.304-1.521.272-1.75.349-.904.22-1.5.319-1.946.333-3 .519c-3.003.533-6.031.963-8.75 1.245-1.375.142-3.175.336-4 .432-5.728.661-21.915.663-26.417.003-.596-.088-2.058-.242-3.25-.344-1.916-.164-3.507-.375-7.416-.984-1.659-.258-4.829-.811-5.667-.988a158 158 0 0 0-2.25-.443c-.825-.156-1.65-.345-1.833-.418s-.821-.227-1.417-.34-1.158-.257-1.25-.319-.692-.212-1.333-.334c-.642-.122-1.28-.278-1.417-.346-.138-.069-1.15-.362-2.25-.653-2.123-.561-3.024-.835-6.083-1.851-4.043-1.342-6.67-2.288-8.109-2.923-.289-.127-.575-.231-.636-.231-.06 0-.52-.188-1.021-.417s-.978-.416-1.059-.416c-.082 0-.361-.112-.62-.248-.26-.136-.847-.408-1.305-.603a81 81 0 0 1-1.868-.836c-.569-.264-1.151-.48-1.292-.48s-.257-.075-.257-.167c0-.091-.096-.166-.213-.166-.268 0-8.399-4.097-8.62-4.343-.046-.051-.346-.197-.667-.324s-.621-.279-.667-.337-.721-.465-1.5-.904a99 99 0 0 1-2.083-1.203c-.367-.222-.798-.447-.958-.499-.161-.053-.292-.162-.292-.243s-.074-.147-.165-.147-1.017-.563-2.058-1.25-1.973-1.25-2.071-1.25-.203-.059-.234-.131c-.03-.071-.543-.446-1.139-.833s-1.334-.909-1.64-1.161a8.4 8.4 0 0 0-1.084-.745 7.6 7.6 0 0 1-1.066-.75l-.54-.464.834-1.166c.459-.642.926-1.354 1.039-1.584s.343-.566.512-.75c.169-.183.646-.837 1.062-1.453.415-.617.859-1.207.986-1.313s.231-.263.231-.351c0-.089.337-.59.75-1.115.412-.525.75-1.012.75-1.082 0-.069.115-.241.256-.382.257-.258.56-.685 2.994-4.223.733-1.067 1.577-2.244 1.875-2.617s.541-.752.541-.842.118-.262.261-.381.589-.709.99-1.312c.849-1.276 3.48-5.011 3.718-5.278.089-.1.28-.4.423-.666.144-.267.489-.739.768-1.049s.507-.624.507-.696c0-.073.099-.232.219-.353.121-.121.498-.633.838-1.137s.747-1.096.905-1.315c.51-.706 1.349-1.907 2.111-3.018.408-.596.971-1.405 1.251-1.798.28-.392.509-.885.509-1.095 0-.505 2.369-3.827 2.903-4.07.23-.105.608-.475.84-.822.231-.348.798-1.157 1.26-1.798.461-.642 1.096-1.542 1.411-2 .315-.459.724-1.021.909-1.25s.338-.505.34-.611c.002-.107.06-.22.129-.25.151-.068 1.219-1.518 2.129-2.889.364-.55.7-1.038.746-1.084s.419-.571.828-1.166c.41-.596.972-1.395 1.25-1.775 1.137-1.557 2.255-3.186 2.255-3.286 0-.058.132-.251.292-.427.477-.526.652-.762.879-1.186a3.3 3.3 0 0 1 .466-.653c.138-.138.493-.63.79-1.094s.66-.943.806-1.065.267-.325.267-.451c0-.127.07-.23.156-.23s.203-.15.261-.332a1.7 1.7 0 0 1 .354-.582c.249-.248 1.032-1.348 2.198-3.086.338-.505.821-1.187 1.073-1.516s.458-.649.458-.71.183-.316.406-.567.585-.72.805-1.04c1.116-1.631 2.06-2.948 2.3-3.211.148-.162.375-.5.504-.75.13-.251.37-.605.534-.787.164-.181.497-.669.739-1.083s.52-.844.618-.955c.533-.609.641-.793.883-1.512.411-1.22 5.647-8.632 6.076-8.599.15.011.529-.398.886-.958.342-.538.689-.979.769-.979s.147-.112.147-.25c0-.137.075-.25.167-.25.091 0 .166-.093.166-.208s.338-.638.75-1.164c.413-.525.75-.993.75-1.039 0-.047.322-.517.716-1.045s.825-1.121.958-1.318c.134-.197.686-.984 1.228-1.75s1.214-1.73 1.494-2.142c.28-.413.605-.849.723-.971.118-.121.215-.278.215-.349s.136-.286.302-.478c.383-.441.736-.924 1.367-1.869.57-.853 1.26-1.837 1.461-2.083.075-.092.466-.655.87-1.25a51 51 0 0 1 1.283-1.805c.303-.396.551-.921.553-1.166.003-.544 4.074-6.336 4.682-6.661.222-.119.927-.963 1.567-1.878 1.378-1.965 1.413-2.015 2.165-3.022.321-.43.583-.861.583-.958 0-.098.07-.177.155-.177.086 0 .201-.143.257-.318s.326-.569.601-.875c.276-.306.621-.782.767-1.057s.318-.537.38-.583c.063-.046.554-.721 1.091-1.5.537-.78 1.038-1.442 1.113-1.473.075-.03.136-.161.136-.291s.075-.236.167-.236c.091 0 .166-.107.166-.236 0-.13.061-.262.135-.292.074-.031.428-.506.786-1.056s.694-1.037.746-1.083c.403-.354.833-1.121.833-1.485 0-.576 2.5-4.071 3.266-4.566.311-.201.609-.496.661-.656s.185-.385.295-.5c.399-.419 1.278-1.594 1.278-1.71 0-.065.215-.392.477-.726s.913-1.245 1.446-2.024 1.146-1.631 1.362-1.894c.248-.301.355-.593.292-.793-.129-.407 2.425-4.052 3.074-4.388.435-.225 3.183-4.033 3.183-4.41 0-.1.072-.181.16-.181s.461-.432.829-.959.895-1.279 1.173-1.672c.277-.393.504-.787.504-.875 0-.089.064-.161.142-.161s.562-.619 1.076-1.375 1.174-1.713 1.465-2.125c.292-.413.868-1.232 1.279-1.822.412-.589.816-1.152.899-1.25s.373-.516.643-.928c.271-.413.742-1.088 1.048-1.5.306-.413.85-1.17 1.21-1.684l1.64-2.334c.542-.769 1.214-1.736 1.494-2.149.28-.412.605-.849.723-.97s.215-.278.215-.349.131-.287.291-.48c.52-.624.879-1.105 1.271-1.701.575-.875 1.769-2.596 2.774-4 .492-.687 1.177-1.662 1.522-2.166.345-.505 1.117-1.592 1.716-2.417s1.09-1.551 1.091-1.613.098-.212.216-.333.473-.596.79-1.054a41 41 0 0 1 .911-1.268c.184-.24.434-.582.557-.76.122-.179.668-.958 1.213-1.732s1.27-1.819 1.611-2.323c.341-.505.739-1.05.885-1.211a4.3 4.3 0 0 0 .5-.749 5.4 5.4 0 0 1 .597-.873c.478-.551 1.814-2.455 2.157-3.073.149-.269.487-.719.75-1 .264-.281.48-.605.48-.719.001-.115.076-.209.168-.209.091 0 .166-.103.166-.229 0-.127.115-.325.255-.441.324-.269 1.245-1.629 1.245-1.838 0-.087.057-.159.125-.159.236-.003.907-1.15.947-1.616.057-.682 2.667-4.319 3.456-4.817.351-.222.639-.515.639-.652 0-.136.075-.248.167-.248.091 0 .166-.103.166-.229 0-.127.115-.325.255-.442s1.093-1.419 2.116-2.895 2.09-2.984 2.37-3.35.584-.788.676-.936.579-.85 1.083-1.559c.504-.708 1.12-1.6 1.369-1.98.249-.381.531-.784.628-.896s.528-.712.959-1.333c.432-.622.881-1.229.998-1.35s.213-.277.213-.346c0-.11.859-1.291 1.832-2.517.181-.229.331-.499.332-.599.002-.101.153-.318.336-.484s.333-.399.333-.518.099-.276.22-.349c.278-.169 1.28-1.634 1.28-1.872 0-.098.072-.178.159-.178s.496-.506.908-1.125c1.336-2.006 2.237-3.286 2.505-3.556.144-.145.262-.351.262-.458s.075-.194.166-.194.167-.104.167-.23.115-.325.254-.441c.313-.259 1.246-1.625 1.246-1.824 0-.079.065-.169.145-.2.08-.03.362-.364.625-.741 1.964-2.809 3.436-4.878 3.72-5.231.185-.229.338-.51.34-.625s.078-.208.17-.208a.17.17 0 0 0 .167-.174c0-.56.78-.672 1.166-.168M54.836 102.256c.004.287.309.654.437.527.068-.068-.003-.251-.158-.406s-.281-.209-.279-.121m22.047 12.651c.123.761.476 1.183.866 1.033.312-.12.195-.766-.179-.985a3.3 3.3 0 0 1-.507-.416c-.271-.271-.281-.251-.18.368m33.025 128.985c-.316.307-.575.645-.575.75s-.075.191-.166.191-.167.113-.167.25a.25.25 0 0 0 .5 0c0-.137.3-.55.667-.916.366-.367.666-.704.666-.75 0-.235-.412-.023-.925.475m3.675.775c-.121.196.036.5.26.5.086 0 .157-.15.157-.334 0-.351-.242-.448-.417-.166m-2.75 8.036c0 .148-.065.294-.144.325-.319.122-.404.839-.092.779.344-.066.641-.969.399-1.211q-.161-.157-.163.107m70.379 2.964c0 .412.033.581.072.375.04-.207.04-.544 0-.75-.039-.207-.072-.038-.072.375m-70.379-.236c0 .294.359.243.462-.066.036-.109-.053-.198-.198-.198a.264.264 0 0 0-.264.264"/></g>
	</symbol>
</svg>
