<svg xmlns="http://www.w3.org/2000/svg" xlink="http://www.w3.org/1999/xlink" viewBox="0 0 38 25"><path d="M 33.334 0.268 C 32.004 0.536 30.652 1.818 29.001 4.376 C 28.835 4.633 28.699 4.856 28.699 4.871 C 28.699 4.886 28.65 4.963 28.59 5.042 C 28.529 5.121 28.48 5.196 28.48 5.208 C 28.48 5.22 28.303 5.524 28.087 5.882 C 27.87 6.241 27.693 6.553 27.693 6.575 C 27.693 6.597 27.666 6.646 27.634 6.684 C 27.601 6.722 27.502 6.887 27.414 7.05 C 27.33 7.205 27.245 7.358 27.159 7.51 C 27.108 7.6 26.985 7.824 26.887 8.009 C 26.755 8.258 26.62 8.506 26.485 8.753 C 26.324 9.049 26.165 9.345 26.009 9.643 C 25.87 9.908 25.742 10.145 25.724 10.169 C 25.707 10.193 25.534 10.518 25.341 10.891 C 25.11 11.337 24.877 11.783 24.643 12.227 C 24.452 12.588 24.182 13.101 24.042 13.365 C 23.919 13.599 23.795 13.833 23.67 14.066 C 23.605 14.186 23.467 14.443 23.365 14.635 C 23.279 14.797 23.191 14.957 23.101 15.117 C 23.005 15.282 22.834 15.593 22.608 16.015 C 22.511 16.195 22.395 16.395 22.351 16.459 C 22.307 16.523 22.27 16.585 22.27 16.598 C 22.27 16.61 22.152 16.821 22.008 17.065 C 21.864 17.31 21.746 17.518 21.746 17.527 C 21.746 17.536 21.637 17.712 21.505 17.917 C 21.373 18.123 21.265 18.305 21.265 18.322 C 21.265 18.395 20.42 19.602 20.385 19.58 C 20.227 19.482 20.508 15.86 20.939 12.446 C 20.976 12.157 21.024 11.773 21.046 11.592 C 21.068 11.411 21.117 11.037 21.155 10.76 C 21.23 10.209 21.262 9.918 21.46 7.98 C 21.659 6.027 21.632 4.086 21.396 3.469 C 21.378 3.421 21.329 3.264 21.287 3.119 C 20.753 1.27 18.709 0.571 16.782 1.579 C 15.965 2.006 14.644 3.202 13.95 4.142 C 13.767 4.391 13.668 4.515 13.587 4.602 C 13.335 4.87 11.341 7.863 10.927 8.592 C 10.859 8.713 10.729 8.93 10.639 9.074 C 10.447 9.387 10.257 9.701 10.07 10.016 C 9.527 10.927 9.551 10.885 9.205 11.486 C 9.037 11.777 8.848 12.097 8.785 12.197 C 8.722 12.297 8.67 12.39 8.67 12.404 C 8.67 12.418 8.611 12.516 8.539 12.621 C 8.467 12.726 8.408 12.824 8.408 12.838 C 8.408 12.853 8.324 13.003 8.222 13.171 C 8.136 13.313 8.051 13.455 7.966 13.597 C 7.882 13.739 7.208 14.842 7.091 15.029 C 7.046 15.102 6.996 15.19 6.979 15.226 C 6.768 15.678 4.828 18.504 4.725 18.509 C 4.512 18.519 4.388 16.155 4.386 12.043 C 4.386 10.233 4.37 8.742 4.352 8.731 C 4.334 8.72 3.429 8.697 2.341 8.68 L 0.363 8.649 L 0.318 8.766 C 0.26 8.919 0.259 14.747 0.317 16.168 C 0.448 19.389 0.982 21.209 2.128 22.342 C 3.858 24.053 6.049 23.543 8.05 20.962 C 8.246 20.709 8.428 20.477 8.455 20.445 C 8.527 20.36 9.538 18.886 9.765 18.536 C 10.2 17.864 11.769 15.283 11.815 15.164 C 11.825 15.138 11.919 14.984 12.023 14.821 C 12.127 14.658 12.213 14.515 12.213 14.502 C 12.213 14.49 12.259 14.407 12.315 14.317 C 12.372 14.227 12.592 13.858 12.804 13.497 C 13.053 13.074 13.303 12.653 13.554 12.232 C 13.754 11.898 13.918 11.607 13.918 11.586 C 13.918 11.565 13.938 11.548 13.962 11.548 C 13.986 11.548 14.005 11.531 14.005 11.51 C 14.005 11.489 14.166 11.208 14.362 10.886 C 14.559 10.564 14.766 10.222 14.823 10.125 C 14.981 9.857 15.926 8.407 16.148 8.093 L 16.487 7.612 C 16.981 6.912 17.363 6.458 17.427 6.497 C 17.47 6.524 17.445 7.039 17.372 7.651 C 17.351 7.832 17.311 8.196 17.285 8.461 C 17.236 8.914 17.185 9.367 17.13 9.819 C 17.028 10.659 16.995 10.927 16.893 11.702 C 16.804 12.377 16.668 13.5 16.63 13.869 C 16.609 14.074 16.552 14.616 16.503 15.073 C 16.455 15.531 16.395 16.191 16.37 16.54 C 16.345 16.889 16.305 17.441 16.28 17.766 C 16.145 19.554 16.386 21.723 16.831 22.714 C 17.302 23.762 17.785 24.242 18.779 24.654 C 19.944 25.137 21.492 24.619 22.642 23.361 C 23.085 22.878 23.083 22.88 23.748 22.013 C 23.92 21.79 24.457 21.008 24.457 20.982 C 24.457 20.967 24.513 20.873 24.581 20.773 C 24.743 20.536 24.945 20.219 25.006 20.109 C 25.033 20.06 25.183 19.804 25.34 19.539 C 25.646 19.024 25.926 18.536 26.119 18.182 C 26.185 18.062 26.34 17.782 26.463 17.561 C 26.586 17.34 26.687 17.148 26.687 17.136 C 26.687 17.123 26.743 17.018 26.811 16.902 C 26.937 16.688 27.344 15.929 27.674 15.292 C 27.795 15.058 27.918 14.824 28.042 14.591 C 28.145 14.399 28.312 14.084 28.414 13.891 C 28.862 13.044 29.106 12.583 29.4 12.03 L 29.88 11.125 C 29.969 10.956 30.061 10.789 30.154 10.622 C 30.213 10.517 30.346 10.274 30.449 10.081 C 30.886 9.267 30.946 9.157 31.014 9.052 C 31.054 8.992 31.142 8.834 31.211 8.702 C 31.28 8.57 31.393 8.379 31.461 8.278 C 31.529 8.177 31.585 8.084 31.585 8.071 C 31.585 8.038 32.173 7.063 32.531 6.502 C 33.251 5.375 33.425 5.144 33.499 5.218 C 33.618 5.337 33.652 10.009 33.558 13.387 C 33.531 14.338 33.51 16.844 33.509 18.954 L 33.509 22.792 L 33.651 22.808 C 33.729 22.816 34.674 22.817 35.75 22.81 L 37.707 22.796 L 37.715 19.591 C 37.752 4.906 37.723 4.111 37.084 2.55 C 36.4 0.877 34.886 -0.044 33.334 0.268 Z" fill="#FFFFFF99"/><path d="M 33.334 0.268 C 32.004 0.536 30.652 1.818 29.001 4.376 C 28.835 4.633 28.699 4.856 28.699 4.871 C 28.699 4.886 28.65 4.963 28.59 5.042 C 28.529 5.121 28.48 5.196 28.48 5.208 C 28.48 5.22 28.303 5.524 28.087 5.882 C 27.87 6.241 27.693 6.553 27.693 6.575 C 27.693 6.597 27.666 6.646 27.634 6.684 C 27.601 6.722 27.502 6.887 27.414 7.05 C 27.33 7.205 27.245 7.358 27.159 7.51 C 27.108 7.6 26.985 7.824 26.887 8.009 C 26.755 8.258 26.62 8.506 26.485 8.753 C 26.324 9.049 26.165 9.345 26.009 9.643 C 25.87 9.908 25.742 10.145 25.724 10.169 C 25.707 10.193 25.534 10.518 25.341 10.891 C 25.11 11.337 24.877 11.783 24.643 12.227 C 24.452 12.588 24.182 13.101 24.042 13.365 C 23.919 13.599 23.795 13.833 23.67 14.066 C 23.605 14.186 23.467 14.443 23.365 14.635 C 23.279 14.797 23.191 14.957 23.101 15.117 C 23.005 15.282 22.834 15.593 22.608 16.015 C 22.511 16.195 22.395 16.395 22.351 16.459 C 22.307 16.523 22.27 16.585 22.27 16.598 C 22.27 16.61 22.152 16.821 22.008 17.065 C 21.864 17.31 21.746 17.518 21.746 17.527 C 21.746 17.536 21.637 17.712 21.505 17.917 C 21.373 18.123 21.265 18.305 21.265 18.322 C 21.265 18.395 20.42 19.602 20.385 19.58 C 20.227 19.482 20.508 15.86 20.939 12.446 C 20.976 12.157 21.024 11.773 21.046 11.592 C 21.068 11.411 21.117 11.037 21.155 10.76 C 21.23 10.209 21.262 9.918 21.46 7.98 C 21.659 6.027 21.632 4.086 21.396 3.469 C 21.378 3.421 21.329 3.264 21.287 3.119 C 20.753 1.27 18.709 0.571 16.782 1.579 C 15.965 2.006 14.644 3.202 13.95 4.142 C 13.767 4.391 13.668 4.515 13.587 4.602 C 13.335 4.87 11.341 7.863 10.927 8.592 C 10.859 8.713 10.729 8.93 10.639 9.074 C 10.447 9.387 10.257 9.701 10.07 10.016 C 9.527 10.927 9.551 10.885 9.205 11.486 C 9.037 11.777 8.848 12.097 8.785 12.197 C 8.722 12.297 8.67 12.39 8.67 12.404 C 8.67 12.418 8.611 12.516 8.539 12.621 C 8.467 12.726 8.408 12.824 8.408 12.838 C 8.408 12.853 8.324 13.003 8.222 13.171 C 8.136 13.313 8.051 13.455 7.966 13.597 C 7.882 13.739 7.208 14.842 7.091 15.029 C 7.046 15.102 6.996 15.19 6.979 15.226 C 6.768 15.678 4.828 18.504 4.725 18.509 C 4.512 18.519 4.388 16.155 4.386 12.043 C 4.386 10.233 4.37 8.742 4.352 8.731 C 4.334 8.72 3.429 8.697 2.341 8.68 L 0.363 8.649 L 0.318 8.766 C 0.26 8.919 0.259 14.747 0.317 16.168 C 0.448 19.389 0.982 21.209 2.128 22.342 C 3.858 24.053 6.049 23.543 8.05 20.962 C 8.246 20.709 8.428 20.477 8.455 20.445 C 8.527 20.36 9.538 18.886 9.765 18.536 C 10.2 17.864 11.769 15.283 11.815 15.164 C 11.825 15.138 11.919 14.984 12.023 14.821 C 12.127 14.658 12.213 14.515 12.213 14.502 C 12.213 14.49 12.259 14.407 12.315 14.317 C 12.372 14.227 12.592 13.858 12.804 13.497 C 13.053 13.074 13.303 12.653 13.554 12.232 C 13.754 11.898 13.918 11.607 13.918 11.586 C 13.918 11.565 13.938 11.548 13.962 11.548 C 13.986 11.548 14.005 11.531 14.005 11.51 C 14.005 11.489 14.166 11.208 14.362 10.886 C 14.559 10.564 14.766 10.222 14.823 10.125 C 14.981 9.857 15.926 8.407 16.148 8.093 L 16.487 7.612 C 16.981 6.912 17.363 6.458 17.427 6.497 C 17.47 6.524 17.445 7.039 17.372 7.651 C 17.351 7.832 17.311 8.196 17.285 8.461 C 17.236 8.914 17.185 9.367 17.13 9.819 C 17.028 10.659 16.995 10.927 16.893 11.702 C 16.804 12.377 16.668 13.5 16.63 13.869 C 16.609 14.074 16.552 14.616 16.503 15.073 C 16.455 15.531 16.395 16.191 16.37 16.54 C 16.345 16.889 16.305 17.441 16.28 17.766 C 16.145 19.554 16.386 21.723 16.831 22.714 C 17.302 23.762 17.785 24.242 18.779 24.654 C 19.944 25.137 21.492 24.619 22.642 23.361 C 23.085 22.878 23.083 22.88 23.748 22.013 C 23.92 21.79 24.457 21.008 24.457 20.982 C 24.457 20.967 24.513 20.873 24.581 20.773 C 24.743 20.536 24.945 20.219 25.006 20.109 C 25.033 20.06 25.183 19.804 25.34 19.539 C 25.646 19.024 25.926 18.536 26.119 18.182 C 26.185 18.062 26.34 17.782 26.463 17.561 C 26.586 17.34 26.687 17.148 26.687 17.136 C 26.687 17.123 26.743 17.018 26.811 16.902 C 26.937 16.688 27.344 15.929 27.674 15.292 C 27.795 15.058 27.918 14.824 28.042 14.591 C 28.145 14.399 28.312 14.084 28.414 13.891 C 28.862 13.044 29.106 12.583 29.4 12.03 L 29.88 11.125 C 29.969 10.956 30.061 10.789 30.154 10.622 C 30.213 10.517 30.346 10.274 30.449 10.081 C 30.886 9.267 30.946 9.157 31.014 9.052 C 31.054 8.992 31.142 8.834 31.211 8.702 C 31.28 8.57 31.393 8.379 31.461 8.278 C 31.529 8.177 31.585 8.084 31.585 8.071 C 31.585 8.038 32.173 7.063 32.531 6.502 C 33.251 5.375 33.425 5.144 33.499 5.218 C 33.618 5.337 33.652 10.009 33.558 13.387 C 33.531 14.338 33.51 16.844 33.509 18.954 L 33.509 22.792 L 33.651 22.808 C 33.729 22.816 34.674 22.817 35.75 22.81 L 37.707 22.796 L 37.715 19.591 C 37.752 4.906 37.723 4.111 37.084 2.55 C 36.4 0.877 34.886 -0.044 33.334 0.268 Z" fill="transparent"/></svg>
